<?xml version="1.0" encoding="UTF-8" standalone="no"?>
<svg
   viewBox="0 0 680.31 684.85"
   version="1.1"
   id="svg21"
   sodipodi:docname="ink_logo.svg"
   inkscape:version="1.3.2 (091e20e, 2023-11-25, custom)"
   xmlns:inkscape="http://www.inkscape.org/namespaces/inkscape"
   xmlns:sodipodi="http://sodipodi.sourceforge.net/DTD/sodipodi-0.dtd"
   xmlns="http://www.w3.org/2000/svg"
   xmlns:svg="http://www.w3.org/2000/svg"
   xmlns:rdf="http://www.w3.org/1999/02/22-rdf-syntax-ns#"
   xmlns:cc="http://creativecommons.org/ns#"
   xmlns:dc="http://purl.org/dc/elements/1.1/">
  <sodipodi:namedview
     id="namedview1"
     pagecolor="#000000"
     bordercolor="#000000"
     borderopacity="0.25"
     inkscape:showpageshadow="2"
     inkscape:pageopacity="0.0"
     inkscape:pagecheckerboard="0"
     inkscape:deskcolor="#d1d1d1"
     inkscape:zoom="1.1988027"
     inkscape:cx="348.26415"
     inkscape:cy="340.75666"
     inkscape:window-width="1920"
     inkscape:window-height="1017"
     inkscape:window-x="-8"
     inkscape:window-y="-8"
     inkscape:window-maximized="1"
     inkscape:current-layer="svg21" />
  <defs
     id="defs1">
    <style
       id="style1">.cls-1{fill-rule:evenodd;}</style>
    <filter
       style="color-interpolation-filters:sRGB;"
       inkscape:label="Drop Shadow"
       id="filter31"
       x="-0.0074271214"
       y="-0.025730367"
       width="1.0194962"
       height="1.0675422">
      <feFlood
         result="flood"
         in="SourceGraphic"
         flood-opacity="0.501961"
         flood-color="rgb(255,255,255)"
         id="feFlood30" />
      <feGaussianBlur
         result="blur"
         in="SourceGraphic"
         stdDeviation="2.000000"
         id="feGaussianBlur30" />
      <feOffset
         result="offset"
         in="blur"
         dx="3.000000"
         dy="3.000000"
         id="feOffset30" />
      <feComposite
         result="comp1"
         operator="in"
         in="flood"
         in2="offset"
         id="feComposite30" />
      <feComposite
         result="comp2"
         operator="over"
         in="SourceGraphic"
         in2="comp1"
         id="feComposite31" />
    </filter>
    <filter
       style="color-interpolation-filters:sRGB;"
       inkscape:label="Drop Shadow"
       id="filter33"
       x="-0.0099021529"
       y="-0.01318464"
       width="1.0259932"
       height="1.0346097">
      <feFlood
         result="flood"
         in="SourceGraphic"
         flood-opacity="0.501961"
         flood-color="rgb(255,255,255)"
         id="feFlood31" />
      <feGaussianBlur
         result="blur"
         in="SourceGraphic"
         stdDeviation="2.000000"
         id="feGaussianBlur31" />
      <feOffset
         result="offset"
         in="blur"
         dx="3.000000"
         dy="3.000000"
         id="feOffset31" />
      <feComposite
         result="comp1"
         operator="in"
         in="flood"
         in2="offset"
         id="feComposite32" />
      <feComposite
         result="comp2"
         operator="over"
         in="SourceGraphic"
         in2="comp1"
         id="feComposite33" />
    </filter>
    <filter
       style="color-interpolation-filters:sRGB;"
       inkscape:label="Drop Shadow"
       id="filter35"
       x="-0.0070554591"
       y="-0.024281667"
       width="1.0185206"
       height="1.0637394">
      <feFlood
         result="flood"
         in="SourceGraphic"
         flood-opacity="0.501961"
         flood-color="rgb(255,255,255)"
         id="feFlood33" />
      <feGaussianBlur
         result="blur"
         in="SourceGraphic"
         stdDeviation="2.000000"
         id="feGaussianBlur33" />
      <feOffset
         result="offset"
         in="blur"
         dx="3.000000"
         dy="3.000000"
         id="feOffset33" />
      <feComposite
         result="comp1"
         operator="in"
         in="flood"
         in2="offset"
         id="feComposite34" />
      <feComposite
         result="comp2"
         operator="over"
         in="SourceGraphic"
         in2="comp1"
         id="feComposite35" />
    </filter>
  </defs>
  <title
     id="title1">Zasób 2</title>
  <g
     id="g2"
     inkscape:label="bottom"
     style="filter:url(#filter35)">
    <path
       d="m 622.12,559.88 a 1.57,1.57 0 0 0 -0.59,2 4.08,4.08 0 0 0 0.37,1.39 11.26,11.26 0 0 0 1.09,2 l 6.73,10.23 c 0.62,0.95 1.07,1.64 1.36,2.07 0.53,0.8 0.91,1.22 1.15,1.27 0.41,0.15 1.22,-0.18 2.45,-1 l 2.59,-1.71 a 6.38,6.38 0 0 0 2.57,-5.05 14.39,14.39 0 0 0 -0.19,-3 7.83,7.83 0 0 0 -1.24,-2.71 l -4,-6.1 25.42,-16.73 20.49,31.16 -66.2,43.55 -9.48,-14.4 a 4.84,4.84 0 0 0 0.72,-2.57 10.92,10.92 0 0 0 -0.12,-2.17 6.32,6.32 0 0 0 -0.88,-2.06 L 573,548.37 a 5.9,5.9 0 0 0 -1.6,-1.73 15.9,15.9 0 0 0 -2.46,-1.26 8.33,8.33 0 0 0 -3.61,-0.65 l -8.9,-13.54 67,-44.06 18.5,28.13 -26,17.08 -2.86,-4.34 a 5.45,5.45 0 0 0 -1.78,-1.77 25.41,25.41 0 0 0 -2.56,-1.1 4.62,4.62 0 0 0 -2.62,-0.14 7.35,7.35 0 0 0 -2.48,1 l -2,1.34 q -2,1.33 -2,1.8 a 4.41,4.41 0 0 0 0.57,1.33 l 1.28,1.95 5.41,8.22 1,1.52 q 1,1.51 1.53,1.62 a 2.76,2.76 0 0 0 1.91,-0.63 l 16.22,-10.68 11,16.66 z"
       id="path21"
       style="fill:#ffffff;fill-opacity:1;stroke:none;stroke-opacity:1"
       inkscape:label="e" />
    <path
       d="m 513.22,575.19 a 6.17,6.17 0 0 0 -3.22,-3.69 6.35,6.35 0 0 0 -5,-0.2 5.48,5.48 0 0 0 -3.49,3.19 6.83,6.83 0 0 0 0,4.88 l 17.4,50.43 a 5.66,5.66 0 0 0 3.19,3.49 6.66,6.66 0 0 0 5,0.11 6.18,6.18 0 0 0 3.93,-8.07 l -3.21,-9.3 a 10.31,10.31 0 0 0 -0.88,-2.16 c -0.49,-0.38 -1.4,-0.34 -2.7,0.11 l -2.45,0.84 -6.47,-18.82 32.93,-11.36 15.92,46.15 a 40,40 0 0 1 -12.26,14.5 q -6.25,4.5 -18.13,8.59 -17.52,6 -29.52,0.59 -12,-5.41 -17.59,-21.6 l -14.23,-41.25 q -5.24,-15.18 3.41,-26.25 7.11,-9.17 22.42,-14.44 a 68.47,68.47 0 0 1 18.87,-4 42,42 0 0 1 19.7,3.89 l 8.36,24.18 -28.64,9.88 z"
       id="path20"
       style="fill:#ffffff;fill-opacity:1;stroke:none;stroke-opacity:1"
       inkscape:label="g" />
    <path
       d="m 405.92,656 a 4.29,4.29 0 0 0 -1.33,-2.6 5.14,5.14 0 0 0 -0.83,-0.43 3.35,3.35 0 0 0 -1.61,-0.48 l -10.68,1.19 a 2.44,2.44 0 0 0 -1.23,0.67 1.92,1.92 0 0 0 -0.57,0.72 4.45,4.45 0 0 0 -0.73,2.86 l 0.16,1.43 a 3.31,3.31 0 0 0 1.9,2.64 7,7 0 0 0 1.1,0.54 4.1,4.1 0 0 0 1.6,0.35 l 2,18 -35.13,3.92 -2,-17.89 a 4.48,4.48 0 0 0 1.6,-2 l 0.5,-2.53 6.05,-82.5 46.84,-5.22 25.57,77.41 a 5.42,5.42 0 0 0 0.7,1.61 c 0.11,0.17 0.56,0.74 1.37,1.74 a 8.57,8.57 0 0 0 2.6,2.25 l 2,17.63 -40.54,4.52 -2,-18 a 4.14,4.14 0 0 0 2,-1.6 3.84,3.84 0 0 0 0.91,-2.91 z m -14.77,-46.06 -1.71,20.9 a 4.9,4.9 0 0 0 1.33,3.77 c 0.87,0.77 2.1,0.93 3.71,0.49 a 6.56,6.56 0 0 0 2.17,-0.37 c 0.84,-0.26 1.32,-0.58 1.46,-0.94 a 4.56,4.56 0 0 0 0.48,-3.84 z"
       id="path19"
       style="fill:#ffffff;fill-opacity:1;stroke:none;stroke-opacity:1"
       inkscape:label="a" />
    <path
       d="m 311.92,649.8 -1.19,11.74 a 6.55,6.55 0 0 0 0.6,3.77 5.07,5.07 0 0 0 1.92,2.21 l -1.74,17.16 -35.17,-3.56 3,-29.73 a 12,12 0 0 0 -0.19,-3.87 8.55,8.55 0 0 0 -1.75,-3.52 13,13 0 0 0 -1.16,-1.29 4.13,4.13 0 0 0 -2.47,-1 L 272,641.5 c -1.7,-0.17 -2.6,-0.17 -2.7,0 a 6,6 0 0 0 -0.44,1.78 c -0.15,1.47 -0.26,2.59 -0.34,3.37 l -1.06,10.46 a 6.7,6.7 0 0 0 0.59,3.79 5.31,5.31 0 0 0 1.93,2.22 l -1.75,17.19 -38.13,-3.86 1.74,-17.16 a 4.61,4.61 0 0 0 2.09,-1.42 11.74,11.74 0 0 0 1.44,-2 5.16,5.16 0 0 0 0.66,-2 l 5.48,-54.05 a 18.14,18.14 0 0 0 0.12,-3.18 7.4,7.4 0 0 0 -0.91,-2.56 6.59,6.59 0 0 0 -2.15,-2.5 l 1.84,-18.19 54.37,5.5 a 23.83,23.83 0 0 1 17,9.67 25.61,25.61 0 0 1 5.64,18.82 q -0.93,9.17 -3.39,14.25 a 18.54,18.54 0 0 1 -10.1,9.37 1.56,1.56 0 0 0 -0.93,1.46 1.54,1.54 0 0 0 0.5,1.49 q 5.21,3.91 6.67,6.15 2.37,3.64 1.75,9.7 z M 285,611.32 a 27.14,27.14 0 0 0 0,-7.42 c -0.57,-2.92 -2,-4.5 -4.21,-4.72 l -5.41,-0.55 a 1.76,1.76 0 0 0 -1.78,0.86 2.65,2.65 0 0 0 -0.37,1.13 c -0.06,0.61 -0.11,1.08 -0.14,1.42 l -1.43,14 c -0.07,0.69 -0.12,1.4 -0.15,2.14 a 3,3 0 0 0 0.29,1.65 2.24,2.24 0 0 0 1.73,1 l 5.66,0.57 a 3.79,3.79 0 0 0 4.18,-2.7 26.87,26.87 0 0 0 1.63,-7.38 z"
       id="path18"
       style="fill:#ffffff;fill-opacity:1;stroke:none;stroke-opacity:1"
       inkscape:label="r" />
    <path
       d="m 150.12,630.85 a 4.28,4.28 0 0 0 -0.1,-2.92 7.1,7.1 0 0 0 -0.56,-0.74 3.58,3.58 0 0 0 -1.26,-1.12 L 138,622.6 a 2.53,2.53 0 0 0 -1.39,0.08 2.26,2.26 0 0 0 -0.83,0.42 4.39,4.39 0 0 0 -1.87,2.27 l -0.46,1.37 a 3.29,3.29 0 0 0 0.55,3.26 7.69,7.69 0 0 0 0.77,1 4.05,4.05 0 0 0 1.3,1 l -5.85,17.16 -33.46,-11.49 5.81,-17 a 4.7,4.7 0 0 0 2.31,-1.13 l 1.53,-2.08 40.59,-72.11 44.62,15.22 -9.82,80.93 a 5.23,5.23 0 0 0 0,1.76 c 0,0.19 0.19,0.91 0.49,2.15 a 8.8,8.8 0 0 0 1.39,3.14 l -5.72,16.79 -38.61,-13.16 5.84,-17.12 a 4.11,4.11 0 0 0 2.46,-0.6 3.92,3.92 0 0 0 2.07,-2.25 z m 6.24,-48 -10.45,18.19 a 4.87,4.87 0 0 0 -0.39,4 c 0.45,1.07 1.5,1.74 3.13,2 a 6.8,6.8 0 0 0 2.13,0.58 c 0.87,0.12 1.45,0 1.72,-0.23 a 4.52,4.52 0 0 0 2.07,-3.26 z"
       id="path17"
       style="fill:#ffffff;fill-opacity:1;stroke:none;stroke-opacity:1"
       inkscape:label="a" />
    <path
       d="m 69.22,532.57 a 6.16,6.16 0 0 0 1,-4.78 6.31,6.31 0 0 0 -2.87,-4.1 5.46,5.46 0 0 0 -4.65,-0.85 6.85,6.85 0 0 0 -3.9,2.93 l -29.62,44.36 a 5.65,5.65 0 0 0 -0.85,4.65 6.68,6.68 0 0 0 3,4.08 6.2,6.2 0 0 0 8.8,-1.75 l 5.46,-8.19 a 10.19,10.19 0 0 0 1.19,-2 c 0,-0.62 -0.57,-1.32 -1.72,-2.08 l -2.15,-1.44 11.07,-16.58 29,19.35 -27.19,40.58 a 40,40 0 0 1 -19,-1 Q 29.47,603.5 19,596.51 3.63,586.23 0.69,573.37 -2.25,560.51 7.26,546.29 L 31.5,510 q 8.91,-13.35 23,-13.16 11.55,0.16 25.02,9.16 a 68.81,68.81 0 0 1 14.64,12.59 42,42 0 0 1 8.82,18 L 88.73,557.9 63.54,541.07 Z"
       id="path16"
       style="fill:#ffffff;fill-opacity:1;stroke:none;stroke-opacity:1"
       inkscape:label="g" />
  </g>
  <g
     id="g14"
     inkscape:label="middle"
     style="filter:url(#filter33)">
    <path
       class="cls-1"
       d="m 357.34,406.65 c 8.69,8.9 17.94,23.66 18.69,36.27 0.65,10.87 1.13,12 6,21.5 5.19,10.18 6.19,8.2 15.82,11.67 16,5.78 13.76,22.83 32.12,21.42 10.56,-0.81 10.1,0.88 18.62,5.87 5.83,3.4 11.43,6.72 17.22,10.19 15.93,9.55 22,15.82 34.49,-1.27 7.87,-10.77 15.1,-21.31 22.49,-32.42 7,-10.54 14.21,-23.76 21.4,-33.57 4,-5.52 9.78,-8.67 13.39,-14.13 3.31,-5 6.91,-14.51 7,-20.46 0.16,-8.86 -5.13,-11.42 -11.86,-15.19 -5.71,-3.21 -11.5,-6.9 -17,-10.5 -4.49,-2.95 -12.55,-7.77 -15.9,-11.58 -4,-4.58 -5.77,-11.45 -10.35,-17.14 18.07,-7.58 36.94,-18.17 54.23,-27.58 12.62,-6.87 13.79,-14 13.39,-27.69 a 139.78,139.78 0 0 0 -5.4,-35.73 c -9.23,-32.8 -36.13,-80.31 -65.66,-98.59 -23.16,-14.35 -35.89,2 -56.48,13.27 -17.68,9.7 -35.26,19.55 -53,29.09 -8,4.26 -19.11,9.58 -25.94,15.13 -3.88,3.16 -6.15,7.37 -9.77,10.6 -3.62,3.23 -8.2,5.19 -11.5,9.19 -7,8.46 -2.86,23.53 0.8,32.73 5,12.48 6.47,18.79 21,20.12 v 0.05 c 0,0.06 -4.1,2.08 -4.46,2.32 -1.44,1 -3,1.78 -4.47,2.65 -2.71,1.59 -6.1,3.7 -8.8,5.1 -2.86,1.49 -16.46,9.05 -18.54,8 C 329,313 321.75,310 316.28,306.72 c -4.32,-2.6 -13.76,-8.41 -18,-10.17 l 0.06,-0.07 c 0.29,-0.62 7.15,-0.6 8.29,-1.09 a 17.78,17.78 0 0 0 5.57,-3.8 c 2.06,-2.32 5.26,-9.3 6.41,-12.34 3.44,-9.09 8.3,-21.27 4.39,-30.95 -3.33,-8.27 -12.68,-10.76 -18.65,-18.85 -5.52,-7.48 -14.43,-11.1 -22.2,-15.63 -15.19,-8.87 -33.07,-18.55 -48.72,-26.62 -16.37,-8.44 -32,-19.78 -48.54,-26.8 h -5.5 c -22.66,6.22 -34.83,21.43 -48.7,39.25 -10.78,13.85 -25.1,41.33 -30.19,58.08 -2.85,9.35 -7.37,25 -8.09,39.33 v 7.37 0 c 0.56,9.84 3.57,18.35 11.07,22.74 a 648.61,648.61 0 0 0 58.27,30 v 0.28 c 0.11,0.49 -3.89,4 -4.36,4.69 a 25.33,25.33 0 0 0 -3.21,6.17 c -2,5.39 -3.58,7.22 -8.19,10.56 -7.46,5.42 -14.95,9.91 -22.61,14.9 -8.08,5.26 -18.32,7.94 -18.11,19.13 0.17,8.7 5.48,19.84 11.82,25.75 8.76,8.15 10.11,10.77 16.24,20.95 4.67,7.75 9.94,15.15 14.71,22.79 6.48,10.37 23,36.86 32.95,42.07 h 2.26 c 14.51,-4.72 23,-11.91 36,-18.87 7.38,-3.95 9.32,-7.7 18.51,-7.21 9.19,0.49 12.67,0.79 18.4,-7.25 4,-5.58 7.72,-10.24 14.13,-13.21 8.55,-4 11.17,-1 16.69,-10.8 4.35,-7.73 6.31,-11.67 6.74,-20.74 0.41,-8.75 2.21,-13.62 6.16,-21.33 7.28,-14.23 14.55,-19.1 26.16,-28.82 6,-5 9.28,-8 16.36,-2.47 a 159.24,159.24 0 0 1 14.94,12.89 z m 170,-17.35 c 13.78,11.15 10.55,45.31 0.74,58.34 -5.61,7.45 -13.89,12.22 -22.74,14.77 A 72.16,72.16 0 0 1 489,464.82 c -7,0.34 -12.39,-0.75 -18.7,-0.63 -8.46,0.15 0.05,4.62 2.85,5.62 4,1.41 10.12,3.09 8.94,8.72 -0.54,2.6 -5.48,10 -7.8,11.44 -4.21,2.61 -9.81,-1.18 -13.52,-3.17 -5.62,-3 -20.49,-9.3 -21.22,-16 -0.6,-5.58 6.37,-8.72 5.17,-11.81 -0.78,-2 -9.15,-4.72 -11.91,-6.49 -15.73,-10 -29.57,-24.45 -31.59,-44.06 v 0 c -2.2,-21.35 7,-39.47 26.29,-49 9.5,-4.72 19.33,-5.12 29.34,-8.09 19,-5.64 14.25,0 25.72,8.11 11.79,8.35 22.08,-3.46 26.42,10.48 4.19,13.47 8.86,11.72 18.31,19.36 z m 19.41,-160.06 c 7.2,13.29 13.68,27.58 17.56,42.25 3.25,12.28 9.7,40.24 -1.75,49 v 0 c 0,-34.43 -9.79,-58.19 -25.49,-88 A 206.81,206.81 0 0 0 514.38,198.6 c -4.43,-5.21 -8.58,-10.16 -13.33,-15.12 -1.88,-2 -14.63,-12.59 -14.8,-13.33 23.48,-0.15 50.36,40.46 60.46,59.09 z m -70.29,-54.39 c 4.27,-2.17 4.89,-4.12 9.14,-1.13 2.54,1.79 6.1,5.17 8.47,7.22 0,0 9.16,9.27 14.14,14.62 9.89,10.65 16.22,22.74 23.86,34.93 14.92,23.8 29.45,63.36 27,91.41 l -6.79,3.49 c -0.23,-18.86 -1,-30.87 -7.58,-48.82 -5.41,-14.82 -10.48,-25.16 -17.5,-39.09 -5.24,-10.41 -15.16,-24.92 -22.64,-33.93 -4.43,-5.33 -8.68,-10 -13.37,-15.09 -2,-2.21 -5.11,-4.8 -7.4,-6.83 l -7.37,-6.54 z m -0.11,4.2 c 3,2.41 17.06,19.09 22.47,24.69 7.45,7.72 20,26.72 24.75,36.44 7.22,14.62 14.37,27.48 18.86,43.36 2.23,7.88 4.94,17.07 5.39,25.15 0.32,5.79 0.86,9.27 0.38,15.13 -0.35,4.44 -2.14,5.87 -6,7.3 3.18,-30.08 -11.87,-61.74 -25,-87.89 -5.26,-10.5 -15.27,-24.68 -22.72,-33.86 -4.35,-5.36 -8.54,-10.15 -13.35,-15.11 -4,-4.13 -11.51,-9.65 -14.63,-13.49 a 16,16 0 0 1 9.81,-1.72 z m -11.73,6 c 3,2.4 6.07,5.56 9.05,8 0,0 11.29,11.19 16.16,16.55 8.7,9.59 18.08,24.93 24.12,36.44 7.19,13.68 14.77,29 18.86,43.88 2.42,8.83 4.79,17 5.77,26.17 a 64.23,64.23 0 0 1 0.13,15 c -0.33,3.67 -3.19,4.18 -6.54,5.82 2,-31.6 -10.48,-60.62 -24.88,-88 a 219.58,219.58 0 0 0 -22.83,-34.08 164.88,164.88 0 0 0 -13.33,-15.12 c -4.44,-4.33 -10.74,-9.23 -14.63,-13.51 4.68,-2.53 3.66,-4.7 8.08,-1.12 z M 422.79,204 c 2.25,-1.36 28.36,-15.78 28.5,-15.8 v 0 c 2.5,-0.25 20.65,17.94 23.22,20.76 a 180.83,180.83 0 0 1 19.35,25.26 c 3,4.76 5.44,9.19 8.23,14 4.11,7.08 0.92,7.15 -5.65,11.63 -7.33,5 -21.46,13.94 -30.28,14.08 -12.3,0.19 -18.49,-12.26 -22.89,-21.78 -4.3,-9.28 -10.6,-19.49 -18.15,-26.46 -3,-2.78 -10.51,-7.32 -11.95,-10.52 -2.79,-6.17 5.74,-8.85 9.62,-11.17 z m -13,7.22 v 0 l 0.23,0.4 c 1.52,4.46 -1.35,3.07 3.34,8 1.76,1.87 4.3,3.33 6.3,5 5.44,4.59 7.11,5.58 11.3,11.66 6.5,9.41 10.22,19.93 16,29.6 7.5,12.63 18.69,13.28 31.29,7.41 4,-1.86 27.72,-17.43 27.88,-17.43 4.62,5.56 13,29.32 15.69,37 5.22,15.14 6.11,30.68 6.11,46.59 -2.41,0.57 -14.09,7.17 -17.08,8.78 -8.71,4.72 -9.47,3.59 -20.07,3.59 l 30.93,-16.25 c -1.27,-10.26 -1.15,-14.72 -3.87,-26.15 -1.22,0.16 -36.88,18.54 -40.6,20.72 -6.43,3.75 -14.73,7.67 -21.52,11.14 -8.59,4.4 -17.23,5.23 -26.73,5.93 v -2.51 c 12.22,-3.2 19.36,-19.05 19.42,-30.7 0.09,-17.8 -1.51,-25.2 -9,-41.17 -4,-8.52 -14.29,-22.44 -21,-29.1 -4.21,-4.19 -8.23,-8.59 -12.62,-12.6 -8.38,-7.65 -15.37,-4.94 -18.26,-6.84 z M 408.5,341 c -4.06,2.26 -12.83,-1.17 -17.24,-2.6 -1.71,-0.55 -16.09,-4.74 -16.35,-5.63 l -0.18,-0.43 60.34,-32.71 h 0.56 l 2.68,26.5 -0.6,0.06 c -3.85,1.09 -24.39,12.16 -29.21,14.81 z m -46.2,-73.55 c 1.56,7.65 6,14.47 8.16,21.27 v 0 c -7.1,0.72 -6.23,-0.15 -9.08,-7.08 -1.81,-4.39 -3.69,-7.75 -5,-12.43 -3.22,-11.26 -4.91,-17.1 6,-23.82 7.72,-4.75 10.63,-11.78 18.16,-16.75 8.07,-5.33 18.45,-1.66 25.06,4.26 a 143.55,143.55 0 0 1 30.89,38.63 91.19,91.19 0 0 1 8.82,25.78 c 1,5.84 1.67,9.91 1.38,15.92 a 28.19,28.19 0 0 1 -1.31,7.4 c -0.16,0.55 -2.25,6.06 -2.38,6 h -0.08 c -1.7,-9.06 -0.38,-16.15 -3.22,-26.6 a 52.08,52.08 0 0 0 -9.84,-19.58 c -4.38,-5.37 -11.47,-9.16 -15.56,-14.19 -4.49,-5.51 -6.56,-12.8 -10.45,-19 -3.89,-6.2 -8.61,-14.27 -17.3,-12 -5.29,1.4 -10.41,11 -14.72,14.67 -9.08,7.74 -12.56,2.63 -9.53,17.56 z m -15.77,53.93 c 0.75,-0.77 20.35,-11.31 22.93,-12.63 a 203.93,203.93 0 0 0 21.69,-13.56 c 7,-4.89 13.78,-10.35 20.51,-15.05 7.49,-5.23 3.51,-5 10.51,-0.78 2.17,1.31 7.37,7 8.1,9.36 -1.68,0.23 -36.89,20.54 -41.2,23.15 -6,3.63 -14.56,8.38 -20.83,11.5 -4.8,2.39 -6,5.11 -10.61,2.75 a 98.44,98.44 0 0 0 -11.1,-4.74 z m -26.65,-3.1 c 15.87,7.29 30.35,14.44 46.78,20.79 8.71,3.37 16.38,6 25.37,8.59 a 99.17,99.17 0 0 0 13.69,3.12 c 5,0.63 10.58,0.26 9.19,7.19 -1.48,7.35 -14.79,12.9 -21.74,12.17 -3.34,-0.36 -18.7,-8.76 -22.74,-10.91 -14.63,-7.77 -29.72,-15.32 -44.12,-23.45 -14.4,-8.13 -29.14,-16 -43.63,-23.95 -8.91,-4.92 -36.65,-19.33 -42.85,-24.72 v 0 c 1.51,-3.22 5.32,-6.82 8.17,-9 6.39,-4.78 3.93,-3.2 9.88,0.91 6.48,4.47 12.61,9.95 19.39,14.25 13.51,8.66 28.09,18.37 42.61,25.05 z M 307.43,244.4 c 11.12,7.12 9.15,12.1 5.95,23.79 a 98.7,98.7 0 0 1 -4.89,12.57 c -2.23,5.17 -2.73,8.45 -9.17,6.67 2.9,-7.62 6.21,-13.11 8.22,-21.53 3.54,-14.81 -2.28,-9.85 -9.8,-17.3 -4.84,-4.79 -8.55,-12.4 -15.3,-14.5 -7.11,-2.21 -13.6,6.83 -16.52,12.17 -2.92,5.34 -6.92,15 -10.6,19.15 -4.53,5.07 -10.74,8.59 -15.33,14.09 a 51.8,51.8 0 0 0 -10,19.71 85.24,85.24 0 0 0 -2.22,12.78 c -0.26,2.54 -0.74,4.19 -0.55,6.84 0.05,0.75 0.56,6.59 0.33,6.82 l -0.15,0.15 v 0 c -7.28,-13.74 0.68,-41.25 7.86,-54.41 a 136,136 0 0 1 30.15,-36.69 c 7,-5.85 15.59,-12.5 24.12,-6.92 6.93,4.49 10.47,11.88 17.9,16.65 z m -61,-41.87 c 19,10.09 9.81,11.63 -1.15,21.53 -7.4,6.69 -14.33,17.12 -18.42,26.2 -4.21,9.38 -10.16,21.9 -22,22.38 -9.45,0.38 -23.41,-8.24 -31.16,-13.55 -6,-4.1 -10.27,-4.7 -6.55,-10.95 2.74,-4.59 5.05,-9.42 8.06,-14 a 199.78,199.78 0 0 1 19.2,-25.42 c 2.95,-3.26 20.12,-20.45 23.06,-21.24 2.4,-0.56 25.18,13.06 29.01,15.09 z M 107.58,319.48 c -12.21,-8 -4.87,-36.81 -1.94,-48.83 3.85,-15.77 10.38,-28.09 17.42,-42.39 9.15,-18.59 37.69,-59.46 60.51,-59.13 -3.28,3.84 -10.78,9.33 -15,13.48 -4.83,4.78 -8.89,10.12 -13.37,15.08 -7.86,8.71 -16.73,23.64 -22.61,34 -12.41,21.78 -28.69,62.91 -25,87.82 z m 10,4.85 c -3.29,-1.45 -6.44,-2.9 -6.53,-7.05 a 118.86,118.86 0 0 1 0.64,-14.24 c 0.82,-8.76 3.19,-17 5.78,-25.4 5,-16.31 11,-28.25 18.47,-43.36 5.93,-12 16.75,-27 25.39,-37.34 4.7,-5.6 8.57,-10.88 14,-15.78 2.58,-2.32 6.54,-5.79 9.36,-7.82 4.91,-3.53 3.57,-2.23 8.56,0.31 -1.42,2.27 -11.74,10.88 -14.66,13.8 -4.84,4.84 -8.87,10.11 -13.38,15.08 -7.56,8.34 -17.11,23.95 -22.63,33.95 -14.85,26.89 -26.27,56.7 -25,87.85 z m 2.75,1.89 c 0.29,-11 0.33,-16 2.65,-27.48 a 182.56,182.56 0 0 1 6.26,-23.49 236.13,236.13 0 0 1 18.47,-40.52 216.13,216.13 0 0 1 24.41,-35.22 159.69,159.69 0 0 1 15.27,-15.4 c 2.56,-2.25 4.83,-4.21 7.57,-6.28 3.68,-2.79 8.47,2 8.46,2.14 v 0.28 c -15.59,9.74 -43.09,45.49 -51,62.25 -6.43,13.67 -12.73,24.32 -17.39,39.19 -4.66,14.87 -9.45,33 -7.48,48.46 z m 17.3,9.43 v 0 c -3.51,-1.63 -6.34,-2.39 -6.56,-6.82 -0.26,-5.14 0.06,-9.49 0.25,-14.63 0.23,-6.11 3.38,-19.62 5.26,-25.78 5,-16.26 12.34,-28.18 19.76,-43.24 4.83,-9.8 16.84,-29.67 24.38,-37.48 5.3,-5.49 9,-10.68 15,-15.63 2.9,-2.42 6.19,-5.32 9.23,-7.57 1.77,-1.31 2.89,-2.65 5.08,-1.42 0.58,0.33 3.3,1.62 3.37,2.1 l 0.11,0.26 c -4.67,4.55 -10.21,8.71 -15,13.5 A 197.43,197.43 0 0 0 185.15,214 c -7.43,9.07 -17.49,23.5 -22.65,33.93 -15.26,30.84 -25.61,52 -24.85,87.68 z m 4.53,2.91 v 0 l -0.33,-5.82 v -0.65 c 0,-5.69 0.64,-17.26 2,-22.58 1.52,-6 3.51,-14 4.85,-20 1,-4.54 12.75,-32.4 15.07,-34.59 2.46,0.79 10.61,7.24 13.51,9.13 5.09,3.3 9.29,5.53 14.6,8.35 12.83,6.8 23.22,4.07 31.13,-7.53 5.91,-8.67 9.14,-20.21 15.94,-29.65 4.84,-6.73 5.72,-6.46 11.34,-11.62 2.08,-1.91 3.89,-3.07 6.1,-5.22 5,-4.85 1.49,-3.79 3.77,-8.08 l 19.55,11.7 c -15.48,1 -16.59,8.71 -26.73,19.15 a 142.65,142.65 0 0 0 -20.44,26.77 c -11.27,19.13 -18.83,54.93 0.45,71.39 7.75,6.6 9.11,1.22 7.91,15 -0.58,6.67 -2.8,12 -5.48,18 -6.3,14.16 -21.67,4.27 -31.53,-1 -19.65,-10.54 -41.73,-23.68 -61.69,-32.75 z m 112.2,72.75 v 0 c -2,16 -22.13,30.12 -35.62,36.17 -8.77,3.93 -21.41,5.41 -30.92,4.83 -4.7,-0.28 -26.42,-3.93 -25.53,-10.29 2.6,-18.63 18.87,-31 35.73,-36.29 11.3,-3.51 19,-5.39 31,-4.68 4.65,0.27 26.13,4.02 25.36,10.26 z m -60.05,78.49 c -1.28,-1.27 -5.81,-7.64 -6.31,-9.2 -2.06,-6.48 1.51,-6.36 5.91,-8.5 2.35,-1.15 8.81,-3.93 10.41,-5.18 -2.23,-3.62 -6.62,-1.51 -11.26,-1.17 a 110.54,110.54 0 0 1 -14.56,0.1 57.51,57.51 0 0 1 -23.5,-6.27 c -14.57,-7.61 -21.56,-21.75 -21.59,-37.91 0,-9.57 0.48,-16.31 4.28,-25.17 3.21,-7.47 10.32,-8.81 16,-13.77 7.07,-6.18 7,-15.91 11.31,-18.43 6.37,-3.76 16.84,2.95 22.54,5.6 v 0.11 c 0,0.06 -7.28,2.76 -7.95,3.07 -2.45,1.15 -4.81,2.54 -7.22,3.78 -4.28,2.19 -9.13,6.34 -12.64,9.66 -8.18,7.73 -14,18.35 -14.62,29.71 -1.47,26.48 25.44,40.31 48.47,40.41 21.7,0.08 46.84,-11.39 58.17,-30.48 6.45,-10.88 8.29,-23.19 3,-35 -8,-17.86 -16.34,-5 -5.91,-27.07 v 0 c 19.11,11.75 23.91,36.81 16.73,56.82 -6,16.76 -24.2,34.43 -41.63,38.57 2.88,7.5 12.94,11.55 1.07,19.17 -6.61,4.23 -12.93,7.59 -19.85,11.19 -4.56,2.4 -6.99,3.79 -10.85,-0.04 z m 80.24,-137.47 c 2.42,1.5 18.34,9.47 18.77,10.73 -0.76,1.05 -7.62,4.21 -9.29,5.15 -5,2.8 -5.86,3.35 -11.88,3 -5.56,-0.31 -16.17,-6.62 -17.39,-12.36 -1.86,-8.75 16.3,-8.68 19.79,-6.52 z m 32,51 c -7.11,7 -13.17,14.81 -16.92,24.14 a 83.69,83.69 0 0 0 -4.35,16 c -0.54,3.14 -0.07,7.64 -0.59,9.75 -0.58,2.33 -3.55,3.1 -5.11,5.24 -4.81,6.61 5.85,4.37 -10.13,10.56 a 46.11,46.11 0 0 0 -12.84,7.86 c -4.42,3.78 -5.56,8.11 -9.07,11.29 -7,6.35 -7.14,-2.51 -15,0.48 -5.11,1.93 -21.08,11.82 -25.92,15.27 -2.74,1.95 -4.67,0.47 -5.12,-2.55 -0.4,-2.73 2.83,-3.54 5.19,-4.93 4.29,-2.52 9,-5 13.42,-7.28 4.62,-2.37 24.63,-11.51 26.57,-14.8 v 0 c -0.1,-8.48 -9.85,-12.75 -1.91,-20 4.19,-3.84 13.82,-9.08 19.42,-9.09 l 2.22,6.85 c 2.22,-1.51 2,-14 2.31,-17.47 a 107.72,107.72 0 0 1 2.99,-16.65 78.84,78.84 0 0 1 12.64,-27.14 c 5.78,-7.66 12.95,-13.33 20.9,-18.57 4,-2.63 19.85,10.91 24.46,13.17 -6.12,5.95 -16.12,10.88 -23.19,17.85 z m 22.62,-25.7 c -15.87,-9.8 -31.44,-18 -47.54,-27.15 C 267,342.2 247.35,332 232.07,325.3 l -0.61,-0.06 2.7,-26.5 v 0 c 7.46,2.4 19.29,10.39 26.58,14.06 8.5,4.28 17.81,9.28 26,14.06 16.87,9.82 34.78,18.41 51.48,28.7 16.2,10 34.6,18.13 46.72,33.47 6.22,7.86 10.18,17.6 13,27.14 a 99.59,99.59 0 0 1 3.17,16.83 c 0.52,3.91 0.17,16.58 2.48,18.15 l 2.1,-7 0.32,0.1 c 6.31,-0.18 14.47,5.41 19.28,9.17 6.67,5.23 -0.69,12.81 -2.45,19.91 10.85,7 21.08,11.28 32,17.43 3.21,1.81 14.91,5.73 13.52,10.22 -1.95,6.29 -11.95,-2.27 -15.19,-4.34 -4.12,-2.63 -11.21,-7.25 -15.55,-9 -7.69,-3.1 -10.7,6.92 -17.16,-2.57 -7.9,-11.6 -15.53,-16.91 -29.34,-20.46 -1.33,-13.3 -4.63,-7.37 -5.82,-12.61 -1.13,-5 -0.6,-10.3 -2.23,-16.53 a 64.84,64.84 0 0 0 -12.23,-24.95 c -9.28,-12.24 -28.49,-24.76 -41.7,-32.91 z"
       id="path1"
       style="fill:#ffffff;fill-opacity:1;stroke:none;stroke-opacity:1" />
    <path
       class="cls-1"
       d="m 411.84,406.46 v 0 c 1.27,26.21 29.62,44.29 53.19,48 26.43,4.17 61.49,-8.19 59.66,-39.9 -1.49,-25.75 -29.67,-44.88 -53.32,-47.92 -26.43,-3.4 -61.08,7.83 -59.53,39.82 z m 95.39,33.44 c 1.48,8.13 -18.21,10.74 -24,11.15 -18,1.27 -40.91,-4.54 -53.65,-18.07 -5.9,-6.26 -11.79,-13.39 -14.2,-21.88 -2,-6.88 19.45,-10.62 24.23,-10.78 v 0 c 18.94,-0.66 40,3.48 54.54,16.6 a 42.11,42.11 0 0 1 13.08,22.98 z"
       id="path2"
       style="fill:#ffffff;fill-opacity:1;stroke:none;stroke-opacity:1" />
    <path
       class="cls-1"
       d="M 236.25,351.54 149.18,307.3 c -3.31,5.67 -3.72,16.07 -3.72,24.24 7,2.69 69.59,36 78.19,40.39 9.44,4.82 12.5,-14.75 12.6,-20.39 z"
       id="path3"
       style="fill:#ffffff;fill-opacity:1;stroke:none;stroke-opacity:1" />
    <path
       class="cls-1"
       d="m 444.5,244.14 v 0 c 1.64,6.69 8.76,18.25 14.55,22.31 8.09,5.68 19.47,-0.82 27,-5 A 86.64,86.64 0 0 0 497,254 c 2.91,-2.4 -2.63,-9.33 -4.1,-11.95 -1.76,-3.18 -12.84,-20.93 -15.08,-21.46 -0.02,16.66 -18.36,31.05 -33.32,23.55 z"
       id="path4"
       style="fill:#ffffff;fill-opacity:1;stroke:none;stroke-opacity:1" />
    <path
       class="cls-1"
       d="m 216.22,244.79 c -7.05,0 -12.08,-3.25 -17.07,-7.83 -5.76,-5.3 -6.85,-10.37 -6.85,-18 -1.69,0.57 -9.57,12.9 -11.31,15.53 -3.62,5.46 -6.6,12.46 -9.71,17.13 v 0 c 7.82,5.8 21.42,15.78 31.36,16.18 6.23,0.25 11.32,-4.13 14.74,-8.88 1.45,-2 7.8,-13.88 7.9,-15.71 -3.27,0.78 -2.84,1.62 -6.79,1.62 z"
       id="path5"
       style="fill:#ffffff;fill-opacity:1;stroke:none;stroke-opacity:1" />
    <path
       class="cls-1"
       d="m 451.94,211.81 c -20,4.13 -15.73,31.83 3.62,26.9 20.33,-5.17 16.28,-31.02 -3.62,-26.9 z"
       id="path6"
       style="fill:#ffffff;fill-opacity:1;stroke:none;stroke-opacity:1" />
    <path
       class="cls-1"
       d="m 221.13,237.74 c 18.82,-5.32 8.75,-30.25 -10.08,-26.9 -20.05,3.56 -7.25,31.79 10.08,26.9 z"
       id="path7"
       style="fill:#ffffff;fill-opacity:1;stroke:none;stroke-opacity:1" />
    <path
       class="cls-1"
       d="m 227.37,207.45 c 7.87,4.66 7.54,9.38 10.62,15.11 l 12.89,-11.39 c -0.68,-3.52 -19,-12 -23,-13.6 -1.7,-0.69 -4.31,-2.13 -6,-3.06 -3.41,-1.91 -2.24,-2.58 -5.36,0.13 -1.61,1.39 -9.18,7.52 -9.67,8.76 10.04,-0.19 11.25,-1.4 20.52,4.05 z"
       id="path8"
       style="fill:#ffffff;fill-opacity:1;stroke:none;stroke-opacity:1" />
    <path
       class="cls-1"
       d="m 431.64,223.7 v 0 c 3.6,-6.38 1.75,-7.61 8.81,-13.68 a 26.74,26.74 0 0 1 16.66,-6 l 1.95,-0.1 3.87,0.42 c -0.54,-1.46 -11.23,-10.82 -13.15,-9.94 -5.1,2.35 -10.74,5.69 -16,8.29 -2.53,1.26 -14.93,6.86 -14.75,9.36 0.04,0.33 12.55,11.63 12.61,11.65 z"
       id="path9"
       style="fill:#ffffff;fill-opacity:1;stroke:none;stroke-opacity:1" />
  </g>
  <g
     id="g13"
     inkscape:label="top"
     style="filter:url(#filter31)">
    <path
       d="m 110.81,116.74 6,10.17 a 6.62,6.62 0 0 0 2.71,2.7 5.12,5.12 0 0 0 2.86,0.65 l 8.73,14.87 L 100.59,163 85.46,137.25 a 12.24,12.24 0 0 0 -2.43,-3 8.66,8.66 0 0 0 -3.5,-1.79 12.55,12.55 0 0 0 -1.7,-0.36 4.16,4.16 0 0 0 -2.6,0.62 l -1.55,0.91 c -1.47,0.87 -2.2,1.39 -2.18,1.58 a 5.57,5.57 0 0 0 0.7,1.7 c 0.74,1.27 1.31,2.25 1.71,2.92 l 5.32,9.07 a 6.67,6.67 0 0 0 2.77,2.7 5.12,5.12 0 0 0 2.86,0.65 l 8.74,14.9 -33,19.4 -8.73,-14.87 a 4.65,4.65 0 0 0 0.85,-2.38 11.9,11.9 0 0 0 0,-2.47 5.08,5.08 0 0 0 -0.66,-2 L 24.45,118 A 19.45,19.45 0 0 0 22.67,115.36 7.71,7.71 0 0 0 20.42,113.83 6.7,6.7 0 0 0 17.2,113 L 8,97.28 55.08,69.62 A 23.76,23.76 0 0 1 74.49,67.4 25.6,25.6 0 0 1 90.16,79.25 q 4.66,7.94 5.67,13.5 a 18.52,18.52 0 0 1 -2.56,13.54 1.56,1.56 0 0 0 0.11,1.73 1.51,1.51 0 0 0 1.28,0.9 c 4.34,0.07 7.35,0.41 9,1 2.72,1.08 5.09,3.31 7.15,6.82 z M 66.34,101.6 a 26.86,26.86 0 0 0 -4.41,-6 c -2.18,-2 -4.24,-2.46 -6.18,-1.32 l -4.69,2.75 a 1.76,1.76 0 0 0 -0.93,1.75 2.6,2.6 0 0 0 0.37,1.13 l 0.72,1.23 7.14,12.17 c 0.35,0.6 0.73,1.21 1.14,1.81 a 2.92,2.92 0 0 0 1.21,1.17 2.21,2.21 0 0 0 2,-0.25 l 4.91,-2.88 a 3.79,3.79 0 0 0 1.78,-4.65 27,27 0 0 0 -3.06,-6.91 z"
       id="path10"
       style="fill:#ffffff;fill-opacity:1;stroke:none;stroke-opacity:1" />
    <path
       d="m 157.53,135.88 -5.4,-16.37 a 4.75,4.75 0 0 0 1.35,-2.3 10.74,10.74 0 0 0 0.46,-2.13 6.3,6.3 0 0 0 -0.32,-2.21 L 135.73,58.7 a 6,6 0 0 0 -1.1,-2.1 16.44,16.44 0 0 0 -2,-1.85 8.4,8.4 0 0 0 -3.31,-1.57 l -5,-15.14 40,-13.19 5,15.14 a 7.79,7.79 0 0 0 -1.67,3 19.11,19.11 0 0 0 -0.52,2.76 6.05,6.05 0 0 0 0.28,2.5 l 17.89,54.18 a 5.41,5.41 0 0 0 1,1.78 11.22,11.22 0 0 0 1.78,1.67 4.42,4.42 0 0 0 2.37,1 l 5.4,16.38 z"
       id="path11"
       style="fill:#ffffff;fill-opacity:1;stroke:none;stroke-opacity:1" />
    <path
       d="m 224.71,114.8 -2.28,-17.09 a 4.79,4.79 0 0 0 1.75,-2 11.6,11.6 0 0 0 0.85,-2 6.45,6.45 0 0 0 0.09,-2.24 l -7.55,-56.54 a 6.16,6.16 0 0 0 -0.69,-2.26 17.46,17.46 0 0 0 -1.67,-2.2 8.32,8.32 0 0 0 -3,-2.16 l -2.11,-16.07 52.37,-7 a 62.43,62.43 0 0 1 13.31,-0.6 16.49,16.49 0 0 1 9.31,3.73 34.4,34.4 0 0 1 7.12,7.29 22.07,22.07 0 0 1 3.5,9.6 l 6.59,49.35 a 44.25,44.25 0 0 1 0,13 17.86,17.86 0 0 1 -4.3,9.56 30.22,30.22 0 0 1 -10.28,7.58 51,51 0 0 1 -13.33,3.42 z m 44.58,-29.21 a 4.1,4.1 0 0 0 1.14,-2.59 19.68,19.68 0 0 0 -0.18,-3.77 l -5.39,-40.39 q -0.17,-1.15 -0.3,-2.25 -0.13,-1.1 -0.3,-2.25 a 13.5,13.5 0 0 0 -0.82,-3.23 5.05,5.05 0 0 0 -1.86,-2.3 6.74,6.74 0 0 0 -4.71,-1.34 l -5.34,0.71 c -1,0.14 -1.58,0.52 -1.66,1.14 a 6,6 0 0 0 0,2.22 c 0.18,1.29 0.31,2.27 0.4,3 l 6.44,48.24 c 0.22,1.62 0.38,2.83 0.48,3.6 a 3.59,3.59 0 0 0 0.62,1.75 1,1 0 0 0 0.94,0.26 l 1.15,-0.15 5.59,-0.75 a 6.23,6.23 0 0 0 3.8,-1.9 z"
       id="path12"
       style="fill:#ffffff;fill-opacity:1;stroke:none;stroke-opacity:1" />
    <path
       d="m 375.53,62.75 a 1.56,1.56 0 0 0 -1.66,1.19 3.92,3.92 0 0 0 -0.55,1.33 11.26,11.26 0 0 0 -0.36,2.26 l -0.88,12.21 c -0.09,1.12 -0.15,2 -0.18,2.47 -0.07,1 0,1.52 0.13,1.7 0.24,0.37 1.08,0.61 2.55,0.71 l 3.1,0.23 a 6.42,6.42 0 0 0 5.11,-2.45 14,14 0 0 0 1.67,-2.5 7.78,7.78 0 0 0 0.67,-2.89 l 0.52,-7.3 30.35,2.2 -2.69,37.19 -79,-5.71 1.25,-17.2 a 4.79,4.79 0 0 0 2.12,-1.6 11.57,11.57 0 0 0 1.24,-1.8 6,6 0 0 0 0.54,-2.17 l 4.12,-56.9 a 5.84,5.84 0 0 0 -0.22,-2.35 17.06,17.06 0 0 0 -1.18,-2.49 8.47,8.47 0 0 0 -2.47,-2.72 L 340.84,0 l 80,5.78 -2.43,33.58 -31,-2.24 0.38,-5.17 A 5.65,5.65 0 0 0 387.45,29.46 25.7,25.7 0 0 0 386,27 4.59,4.59 0 0 0 384,25.3 7.24,7.24 0 0 0 381.42,24.59 L 379,24.44 c -1.62,-0.11 -2.52,-0.05 -2.71,0.2 A 4.45,4.45 0 0 0 376,26 c -0.08,1 -0.13,1.81 -0.17,2.32 l -0.71,9.82 C 375,39 375,39.56 375,40 a 3.68,3.68 0 0 0 0.23,2.22 2.76,2.76 0 0 0 1.9,0.66 l 19.37,1.4 -1.5,19.88 z"
       id="path13"
       style="fill:#ffffff;fill-opacity:1;stroke:none;stroke-opacity:1" />
    <path
       d="m 524.94,102.56 -3.35,11.32 a 6.6,6.6 0 0 0 -0.11,3.82 5.17,5.17 0 0 0 1.47,2.53 l -4.88,16.54 -33.9,-10 8.47,-28.65 a 12.21,12.21 0 0 0 0.53,-3.84 8.58,8.58 0 0 0 -1.09,-3.78 12.62,12.62 0 0 0 -0.89,-1.48 4.12,4.12 0 0 0 -2.19,-1.51 l -1.72,-0.5 c -1.63,-0.49 -2.51,-0.66 -2.64,-0.52 a 5.74,5.74 0 0 0 -0.77,1.67 q -0.61,2.13 -1,3.24 l -3,10.1 a 6.6,6.6 0 0 0 -0.12,3.82 5.17,5.17 0 0 0 1.48,2.54 l -4.9,16.57 -36.75,-10.87 4.89,-16.56 a 4.75,4.75 0 0 0 2.33,-1 12.18,12.18 0 0 0 1.78,-1.71 5.2,5.2 0 0 0 1,-1.86 L 465,40.36 a 18.68,18.68 0 0 0 0.71,-3.09 7.64,7.64 0 0 0 -0.42,-2.7 6.69,6.69 0 0 0 -1.65,-2.85 l 5.18,-17.53 52.4,15.49 a 23.81,23.81 0 0 1 14.9,12.65 25.6,25.6 0 0 1 2,19.53 q -2.61,8.83 -6,13.38 a 18.51,18.51 0 0 1 -11.63,7.37 1.58,1.58 0 0 0 -1.18,1.28 1.52,1.52 0 0 0 0.21,1.55 q 4.48,4.82 5.48,7.28 1.66,4.01 -0.06,9.84 z m -19.35,-42.8 a 27.64,27.64 0 0 0 1.35,-7.3 q 0,-4.47 -3.26,-5.42 l -5.22,-1.54 a 1.76,1.76 0 0 0 -1.91,0.51 2.54,2.54 0 0 0 -0.57,1.05 c -0.18,0.58 -0.31,1 -0.41,1.36 l -4,13.54 c -0.2,0.66 -0.38,1.35 -0.54,2.06 a 3,3 0 0 0 0,1.69 2.26,2.26 0 0 0 1.49,1.29 l 5.48,1.58 a 3.79,3.79 0 0 0 4.61,-1.88 27,27 0 0 0 2.98,-6.94 z"
       id="path14"
       style="fill:#ffffff;fill-opacity:1;stroke:none;stroke-opacity:1" />
    <path
       d="m 573.26,170.05 q -13.59,-8.06 -19.82,-15.81 a 43.39,43.39 0 0 1 -7.64,-15.06 l 13.74,-23.18 27.4,16.24 -6.14,10.36 a 4.5,4.5 0 0 0 -0.11,4.38 7.7,7.7 0 0 0 3.08,3.55 q 3.24,1.92 5.91,0.57 c 1.79,-0.9 3.52,-2.75 5.19,-5.58 q 4.7,-7.91 -3.79,-17.15 -15,-16.26 -15.81,-17.65 -6.88,-12.2 2,-27.24 9.61,-16.14 23.73,-17.28 11.4,-0.93 26,7.72 13.38,7.92 19.56,15.51 a 40.43,40.43 0 0 1 7.72,14.66 l -12.68,21.38 -25.95,-15.38 4.62,-7.8 a 7,7 0 0 0 1,-4.69 5.63,5.63 0 0 0 -3,-4 q -6.13,-3.63 -10.88,4.39 -3.51,5.91 5.07,15 12.84,13.64 15.18,18.33 6.45,13 -2.6,28.26 -18.14,30.42 -51.78,10.47 z"
       id="path15"
       style="fill:#ffffff;fill-opacity:1;stroke:none;stroke-opacity:1" />
  </g>
  <metadata
     id="metadata21">
    <rdf:RDF>
      <cc:Work
         rdf:about="">
        <dc:title>Zasób 2</dc:title>
      </cc:Work>
    </rdf:RDF>
  </metadata>
</svg>
