<?xml version="1.0" encoding="UTF-8" standalone="no"?>
<!-- Creator: CorelDRAW (Evaluation Version) -->

<svg
   xml:space="preserve"
   width="32.892838in"
   height="37.404892in"
   version="1.1"
   style="clip-rule:evenodd;fill-rule:evenodd;image-rendering:optimizeQuality;shape-rendering:geometricPrecision;text-rendering:geometricPrecision"
   viewBox="0 0 32892.822 37404.905"
   id="svg31"
   sodipodi:docname="RIDERS.svg"
   inkscape:version="1.3 (0e150ed6c4, 2023-07-21)"
   xmlns:inkscape="http://www.inkscape.org/namespaces/inkscape"
   xmlns:sodipodi="http://sodipodi.sourceforge.net/DTD/sodipodi-0.dtd"
   xmlns="http://www.w3.org/2000/svg"
   xmlns:svg="http://www.w3.org/2000/svg"><sodipodi:namedview
   id="namedview31"
   pagecolor="#ffffff"
   bordercolor="#000000"
   borderopacity="0.25"
   inkscape:showpageshadow="2"
   inkscape:pageopacity="0.0"
   inkscape:pagecheckerboard="0"
   inkscape:deskcolor="#d1d1d1"
   inkscape:document-units="in"
   inkscape:zoom="0.11487747"
   inkscape:cx="-474.41854"
   inkscape:cy="1893.3217"
   inkscape:window-width="1920"
   inkscape:window-height="1017"
   inkscape:window-x="-8"
   inkscape:window-y="-8"
   inkscape:window-maximized="1"
   inkscape:current-layer="Warstwa_x0020_1" />&#10; <defs
   id="defs1">&#10;  <style
   type="text/css"
   id="style1">&#10;   <![CDATA[
    .str1 {stroke:#2B2A29;stroke-width:7.87;stroke-miterlimit:22.9256}
    .str0 {stroke:#2B2A29;stroke-width:3;stroke-miterlimit:22.9256}
    .fil1 {fill:#2B2A29}
    .fil0 {fill:#2B2A29;fill-rule:nonzero}
   ]]>&#10;  </style>&#10; </defs>&#10; <g
   id="Warstwa_x0020_1"
   inkscape:label="Warstwa 1"
   inkscape:groupmode="layer"
   transform="translate(-2617.1408,-4608)">&#10;  <metadata
   id="CorelCorpID_0Corel-Layer" />&#10;  &#10;  &#10;  &#10;  &#10;  &#10;  &#10;  &#10;  &#10;  &#10; <g
   id="_2839939797056"
   style="clip-rule:evenodd;fill-rule:evenodd;image-rendering:optimizeQuality;shape-rendering:geometricPrecision;text-rendering:geometricPrecision"
   transform="rotate(90,16062.195,20503.041)">&#10;   <path
   class="fil0 str0"
   d="m 8324.45,30444.25 1597.26,-1160.48 117.96,162.37 -1597.24,1160.48 -58.3,-80.24 192.63,265.15 1777.54,-1291.46 781.98,1076.3 L 6498.4,33946 5325.43,32331.55 c -390.2,-537.06 -574.81,-1054.08 -555.21,-1548.36 20.7,-495.07 245.36,-899.16 676.96,-1212.74 239.18,-173.78 492.35,-259.71 755.75,-258.4 263.41,1.33 538.7,85.33 826.74,253.13 -126.5,-343.28 -141.28,-644.85 -43.25,-905.42 98.04,-260.59 287.85,-493.17 567.25,-696.16 l 293.54,-213.28 c 120.69,-87.68 245.31,-206.46 374.72,-355.3 128.31,-148.04 193.38,-291.67 193.85,-428.2 l 64.15,-46.59 807.25,1111.09 c -4.7,132.98 -79.66,272.15 -225.96,418.31 -148.17,145.86 -294.16,271.85 -440.93,378.48 l -280.5,203.8 c -220.69,160.34 -346.56,341.48 -379.44,543.12 -31.82,200.84 34.28,415.26 197.79,640.3 l 166.33,228.94 z m -575.02,948.35 -395.73,-544.68 c -122.8,-169.02 -253.95,-285.33 -392.18,-348.3 65.09,57.93 128.29,128.99 189.41,213.11 l 395.73,544.68 -1136.17,825.48 134.34,184.9 1204.59,-875.2 z m -988.21,-946.79 c -155.15,-13.95 -310.36,36.51 -467.34,150.57 -189.16,137.44 -298.71,306.73 -328.64,507.86 -30.24,203.02 32.99,411.22 188.61,625.41 l 182.71,251.48 -44.03,-60.6 1024.31,-744.22 -395.73,-544.68 c -51.84,-71.35 -105.17,-133.3 -159.89,-185.82 z m 1011.63,-5472.52 518.76,1222.14 -5277.02,2239.97 -518.76,-1222.15 5277.02,-2239.95 z m -494.48,-892.3 -5607.47,1191.9 -436.14,-2051.86 c -140.25,-659.86 -42.03,-1257.76 293.36,-1793.41 335.39,-535.65 840.25,-875.14 1511.93,-1017.91 l 1009.51,-214.57 c 675.63,-143.62 1274.92,-38.81 1797.85,314.38 522.95,353.2 854.56,859.74 994.82,1519.61 z m -4882.46,-322.31 3604.25,-766.11 -159.54,-750.54 c -61.67,-289.86 -228.65,-504.58 -500.19,-645.52 153.72,131.38 253,301.31 297.42,510.34 l 159.54,750.54 -3437.73,730.71 36.26,170.57 z m 2698.67,-2256.69 c -228.35,-61.1 -484.06,-61.86 -767.58,-1.59 l -1016.08,215.98 c -378.55,80.46 -667.06,242.08 -868.41,484.09 -199.75,243.03 -269,511.92 -206.13,807.67 l 96.84,455.63 3234.35,-687.48 -159.54,-750.54 c -45.95,-216.22 -150.59,-390.59 -313.46,-523.75 z m -1155.05,-6010.5 -31.61,1810.78 992.03,17.31 42.26,-2421.2 1023.84,17.87 -1.35,77.08 -792.68,-13.84 -42.26,2421.2 -1223.2,-21.35 -2.3,131.6 1428.26,24.93 42.26,-2421.2 1023.84,17.87 -65.48,3751.38 -5731.88,-100.05 65.56,-3755.41 1023.83,17.87 -38.7,2216.56 795.9,13.9 35.24,-2019.46 1023.84,17.87 -1.35,77.08 -792.68,-13.84 -35.24,2019.46 -1027.05,-17.93 -2.3,131.6 1232.11,21.51 35.24,-2019.46 1023.84,17.87 z M 4706.31,12574.56 6838.2,13106.1 6516.36,14396.97 953.9,13010.1 1436.66,11073.8 c 160.61,-644.14 437.99,-1117.87 829.23,-1420.59 392.56,-302.37 846.51,-390.02 1364.17,-260.94 286.85,71.51 515.42,210.22 683.72,412.83 59.22,71.3 111.54,150.32 156.96,237.09 124.39,-128.31 262.24,-219.16 413.77,-272.47 262.64,-92.41 562.81,-96.5 897.92,-12.96 l 352.06,87.78 c 144.74,36.09 315.85,55.21 513.04,58.68 195.88,3.12 347.73,-39.35 452.63,-126.74 l 76.93,19.17 -39.73,159.37 c -75.46,21.08 -162.26,30.88 -260.02,29.32 -197.19,-3.47 -368.31,-22.59 -513.04,-58.68 l -352.06,-87.78 c -335.1,-83.54 -635.28,-79.44 -897.92,12.96 -206.44,72.62 -387.46,214.94 -543.7,426.72 33.83,100.01 60.74,207.83 80.68,323.57 181.66,-317.57 403.17,-522.71 665.8,-615.11 262.64,-92.41 562.81,-96.5 897.92,-12.96 l 352.06,87.78 c 144.74,36.09 315.85,55.21 513.04,58.68 195.88,3.12 347.73,-39.35 452.63,-126.74 l 76.93,19.17 -332.25,1332.6 c -104.9,81.87 -259.7,113.92 -465.69,95.79 -206.98,-19.75 -397.34,-50.6 -573.36,-94.48 l -336.41,-83.88 c -264.69,-66 -484.35,-45.98 -659.96,58.44 -174.3,104.71 -296.09,293.19 -363.38,563.09 l -147.73,592.49 0.88,-3.5 1673.85,417.33 -5.58,22.41 -1673.86,-417.33 -19.86,79.68 z m -992.26,-247.4 162.88,-653.27 c 64.7,-259.46 54.45,-473.92 -30.06,-640.41 -63.71,-127 -166.64,-220.91 -309.01,-283.04 42.94,43.03 78.35,92.28 106.24,147.86 84.52,166.49 94.76,380.94 30.06,640.41 l -162.88,653.27 -1222.1,-304.71 -19.86,79.68 1444.73,360.22 z M 3324.4,10686.42 c -200.69,-37.16 -379.46,-7.64 -536.31,88.61 -174.95,107.35 -293.81,289.61 -357.85,546.48 l -136.39,546.99 0.92,-3.65 986.69,246.02 162.88,-653.26 c 64.7,-259.47 54.45,-473.92 -30.06,-640.41 -24.26,-48.37 -54.24,-91.94 -89.88,-130.78 z M 7956.37,6132.79 c -19.13,-10.18 -38.16,-19.43 -57.06,-27.75 72.28,74.04 118.95,166.11 140.47,276.07 32.93,172.76 -15.56,381.35 -146.16,626.96 -158.99,299.01 -338.66,488.07 -539.02,567.22 -177.78,69.26 -391.17,47.33 -640.94,-66.16 153.59,37.03 290.55,32.01 411.13,-14.95 200.37,-79.15 380.04,-268.21 539.02,-567.22 130.6,-245.61 179.09,-454.2 146.16,-626.96 -19.07,-97.45 -57.9,-180.85 -116.8,-250.09 -84.83,-7.25 -166.89,5.73 -246.09,38.86 -159.19,67.55 -375.41,228.05 -649.25,479.69 -538.44,520.34 -1003.51,871.21 -1397.02,1053.12 -391.69,181.35 -805.31,157.76 -1238.39,-72.51 -56.99,-30.29 -110.8,-63.07 -161.43,-98.26 -89.5,-30.17 -179.9,-69.51 -271.15,-118.03 -423.58,-225.22 -671.85,-585.53 -746.08,-1078.54 -73.58,-494.2 35.63,-1014.47 326.48,-1561.46 306.61,-576.66 689.19,-969.85 1145.9,-1179.04 396.11,-180.41 801.24,-180.62 1218.46,-0.96 -336.66,-92.33 -665.65,-65.04 -988.65,82.07 -456.71,209.19 -839.29,602.38 -1145.9,1179.04 -290.84,546.99 -400.06,1067.26 -326.48,1561.46 72.33,480.4 309.96,834.78 713.95,1060.98 -281.75,-223.21 -451.91,-532.21 -511.18,-925.8 -73.58,-494.2 35.63,-1014.47 326.48,-1561.46 306.61,-576.66 689.19,-969.85 1145.9,-1179.04 457.89,-208.55 927.81,-176.35 1414.55,96.17 l 16.38,17.83 -606.29,1140.26 c -238.5,-126.81 -446.41,-153.66 -623.16,-81.74 -177.37,73.12 -334.86,240.49 -473.67,501.52 -113.55,213.57 -150.93,409.82 -111.5,587.56 19.44,89.61 53.06,166.91 101.02,231.99 69.44,-3.42 139.65,-23.05 210.49,-58.72 156.5,-79.64 394.14,-254.64 711.8,-528.63 484.88,-494.02 933.86,-826.06 1343.83,-993.13 365.43,-149.74 740.68,-141.14 1125.8,25.77 -304.96,-82.88 -603.63,-64.47 -895.99,55.34 -409.96,167.07 -858.94,499.11 -1343.83,993.13 -317.66,273.99 -555.3,448.99 -711.8,528.63 -135.49,68.21 -268.63,77.83 -398.57,27.37 40.53,42.58 88.65,78.72 144.46,108.39 148.31,78.86 301.04,77.88 456.89,-0.58 156.5,-79.64 394.14,-254.64 711.8,-528.63 484.88,-494.02 933.86,-826.06 1343.83,-993.13 410.6,-168.26 833.63,-136.61 1269.09,94.93 444.94,236.58 701.68,595.29 768.36,1076.69 66.7,481.4 -52.95,1009.82 -358.3,1584.12 -304.71,573.08 -697.38,985.28 -1179.25,1238.92 -480.69,254.26 -1008.3,221.82 -1582.21,-98.55 l -16.39,-17.86 6.34,-11.91 c -137.93,-44.13 -278.78,-106.28 -422.54,-186.52 l -16.39,-17.86 608.17,-1143.8 c 76.73,40.8 150.28,73.57 220.65,98.36 l -599,1126.56 16.38,17.85 c 65.98,36.83 131.34,69.83 196.11,99.05 l 598.45,-1125.53 c 294.26,156.46 541.58,195.12 743.14,116.61 200.37,-79.15 380.04,-268.21 539.02,-567.22 130.6,-245.61 179.09,-454.2 146.16,-626.96 -33.58,-171.57 -128.37,-299.59 -286.18,-383.5 z m 22112.22,26140.19 -0.03,-0.02 c -224.02,-85.57 -443.64,-209.45 -658.85,-371.63 l -955.19,-719.78 c -551.64,-415.69 -872.98,-927.08 -962.44,-1536.29 -90.26,-608.16 69.61,-1184.29 478.03,-1726.28 440.75,-584.91 903.81,-929.22 1390.5,-1030.25 324.49,-68.65 639.3,-35.97 944.99,97.86 -233.09,-62.71 -471.41,-68.32 -715.18,-16.75 -486.68,101.04 -949.75,445.35 -1390.5,1030.25 -408.43,541.98 -568.29,1118.12 -478.03,1726.27 89.46,609.21 410.81,1120.61 962.44,1536.29 l 955.18,719.78 c 82.31,62.04 165.28,118.45 248.89,169.26 -15.39,-11.17 -30.76,-22.52 -46.11,-34.08 l -955.19,-719.78 c -551.64,-415.69 -872.98,-927.08 -962.44,-1536.29 -90.26,-608.16 69.61,-1184.29 478.03,-1726.28 440.74,-584.91 903.81,-929.22 1390.5,-1030.25 486.44,-102.9 951.11,21.79 1395.93,373.8 l 14.46,21 -750.5,995.95 c -224.31,-169.03 -437.02,-235.08 -635.18,-197.65 -200.04,37.72 -389.58,177.59 -570.74,417.98 -186.81,247.91 -239.84,519.25 -158.54,817.76 81.3,298.52 277.96,564.5 590.27,799.86 l 961.62,724.61 c 318.75,240.19 631.85,358.35 939.34,354.49 305.58,-3.61 561.76,-140.37 765.56,-410.83 147.19,-195.31 246.74,-360.92 299.73,-495.98 53.79,-136.15 77.17,-256.49 74.98,-360.79 l -817.8,-616.25 -8.46,11.23 623.49,469.84 c 2.19,104.29 -21.2,224.63 -74.99,360.79 -52.99,135.06 -152.54,300.67 -299.72,495.98 -203.8,270.46 -459.98,407.22 -765.56,410.83 -181.57,2.28 -365.13,-38.01 -550.62,-120.84 107.6,27.81 214.55,41.07 320.81,39.73 305.58,-3.61 561.76,-140.37 765.56,-410.83 147.19,-195.31 246.74,-360.92 299.73,-495.98 53.79,-136.15 77.17,-256.49 74.98,-360.79 l -437.94,-330 -558.67,741.39 -704.04,-530.52 1412.05,-1873.85 1813.75,1366.76 c 73.48,304.41 68.67,652.44 -13.39,1044.94 -81.25,391.39 -293.19,815.57 -636.09,1270.61 -427.82,567.74 -950.51,897.41 -1565.13,989.54 -531.8,79.72 -1041.62,-31.93 -1529.5,-334.83 z m 5076.89,-7343.26 -554.75,1611.13 945.71,675.26 -456.32,1325.24 -4811.85,-3633.81 232.33,-674.69 3.8,1.31 -2.92,-3.85 232.31,-674.69 6030.3,95.17 -456.32,1325.24 -1162.28,-46.3 z m -1423.2,988.04 355.24,-1031.74 -246.02,-9.57 -309.16,897.89 199.94,143.41 z m -145.11,-1051.22 -1356.48,-52.8 -7.45,21.6 1102.41,790.74 261.52,-759.55 z m 1433.19,-4177.72 2185.12,229.66 -139.06,1323.09 -5701.34,-599.23 208.6,-1984.64 c 69.39,-660.21 278.15,-1167.96 623.45,-1522.16 346.66,-354.07 783.99,-504.03 1314.56,-448.26 294.02,30.9 539.67,136.44 734.54,313.66 65.02,59.13 124.85,126.02 179.52,200.65 112.53,-169.41 247.95,-295.25 406.61,-377.43 247.22,-128.06 543.91,-173.9 887.38,-137.79 l 360.84,37.92 c 148.35,15.6 320.46,10.71 516.22,-13.3 194.41,-24.16 338.87,-87.36 430.58,-188.51 l 78.85,8.3 -20.34,193.5 c -73.04,32.77 -159.6,55.44 -259.28,67.82 -195.76,24.01 -367.87,28.9 -516.22,13.3 l -360.84,-37.92 c -343.47,-36.11 -640.15,9.73 -887.37,137.79 -202.83,105.05 -367.65,281.43 -495.25,528.99 47.16,93.99 88.61,196.62 124.31,307.97 135.7,-339.75 326.49,-573.74 573.71,-701.78 247.22,-128.06 543.91,-173.9 887.38,-137.79 l 360.84,37.92 c 148.35,15.6 320.46,10.71 516.22,-13.3 194.41,-24.16 338.87,-87.36 430.58,-188.51 l 78.85,8.3 -143.56,1365.85 c -92.48,95.69 -241.3,148.94 -447.82,159.68 -207.7,9.25 -400.5,5.19 -580.93,-13.78 l -344.81,-36.24 c -271.3,-28.51 -486.03,21.89 -645.41,149.73 -158.03,127.95 -252.39,331.53 -281.46,608.18 l -74.46,708.33 z m -1017.03,-106.91 70.38,-669.57 c 27.96,-265.94 -12.05,-476.88 -118.91,-629.99 -65.36,-94.6 -153.16,-164.18 -263.58,-209.39 22.06,22.75 42.33,47.47 60.8,74.21 106.86,153.11 146.86,364.05 118.91,629.99 l -70.37,669.57 -1266.2,-133.07 5.92,-56.33 1030.46,108.29 70.38,-669.57 c 27.96,-265.94 -12.05,-476.88 -118.91,-629.99 -11.06,-16 -22.75,-31.28 -35.09,-45.85 -10.75,-1.46 -21.66,-2.79 -32.69,-3.95 -232.56,-24.44 -427.23,28.06 -584.07,157.5 -158.31,130.65 -250.64,327.68 -278.31,590.98 l -69.54,661.54 1480.81,155.63 z m 1995.53,-7263.94 217.66,1548.82 -2.26,-16.11 738.37,110.71 6.69,47.65 -738.37,-110.71 15.05,107.04 1149.21,172.32 195.06,1387.97 -5937.1,-1053.23 -99.3,-706.62 3.99,-0.57 -4.37,-2.1 -99.31,-706.62 5416.24,-2652.91 195.07,1387.97 -1056.62,486.4 z m -819.53,1526.49 -151.86,-1080.56 -172.59,79.63 121.68,865.75 -1502.4,-228.61 h -0.01 l -133.95,61.82 3.18,22.61 1835.96,279.35 z m -529.56,-906.28 -1100.41,507.79 1197.39,182.2 -96.98,-689.98 z m -559.38,-7828.44 c 297.1,99.01 589.69,287.52 879.05,565.1 288.89,276.31 536.28,680.83 740.47,1212.76 254.75,663.66 257.35,1281.63 9.79,1851.67 -247.56,570.04 -696.27,979.8 -1346.13,1229.25 l -1116.56,428.61 c -644.86,247.53 -1248.82,249.06 -1812.87,2.09 -111.67,-48.7 -217.09,-105.09 -316.2,-169.09 -38.97,-14.57 -77.77,-30.31 -116.38,-47.2 -563.57,-245.72 -967.46,-686.61 -1210.65,-1320.17 -262.47,-683.74 -309.07,-1258.88 -136.85,-1725.17 170.49,-467.06 522.49,-795.05 1056.73,-985.72 l 25.47,-1.15 54.31,141.51 c -450.65,196.24 -752.72,504.63 -906.7,926.47 -172.22,466.28 -125.63,1041.43 136.84,1725.17 207.36,540.17 531.54,940.27 971.89,1198.78 -338.5,-255.16 -595,-610 -769.12,-1063.6 -262.47,-683.74 -309.07,-1258.88 -136.85,-1725.17 170.49,-467.06 522.49,-795.05 1056.73,-985.72 l 25.47,-1.15 446.91,1164.24 c -262.21,100.65 -430.95,246.03 -504.22,433.92 -74.01,189.63 -55.84,424.48 52.03,705.52 57.89,150.8 140.37,274.23 247.9,370.52 277.68,65.4 583.93,33.3 920.11,-95.74 l 1124.09,-431.5 c 372.6,-143.04 638.74,-345.96 798.39,-608.76 158.88,-261.07 178.65,-550.79 57.29,-866.94 -82.8,-215.69 -165.64,-381.28 -247.44,-497.16 l -803.97,308.62 364.07,948.44 -823,315.92 -840.85,-2190.48 2120.22,-813.88 z m -2668.05,3932.24 c 98.95,88.35 219.05,153.81 360.7,196.5 296.24,89.25 626.03,63.41 991.11,-76.72 l 1124.09,-431.5 c 372.6,-143.04 638.74,-345.96 798.39,-608.76 158.88,-261.07 178.65,-550.79 57.29,-866.94 -87.65,-228.32 -175.33,-400.52 -261.79,-517.02 -86.96,-117.76 -176.63,-201.37 -266.23,-254.78 l -26.87,10.31 c 30.36,32.52 60.51,68.89 90.33,109.28 86.46,116.5 174.14,288.7 261.8,517.02 121.37,316.15 101.59,605.87 -57.29,866.93 -159.65,262.81 -425.78,465.73 -798.39,608.77 l -1124.09,431.5 c -365.09,140.13 -694.88,165.96 -991.11,76.72 -56.02,-16.87 -108.62,-37.31 -157.93,-61.32 z m -1556.11,-6971.5 954.9,1267.18 968.88,-730.09 -1457.33,-1933.95 817.8,-616.26 122.22,162.19 -710.21,535.17 1457.33,1933.96 -1076.47,811.17 138.41,183.69 1140.83,-859.68 -1457.33,-1933.95 817.8,-616.26 2257.97,2996.44 -4578.37,3450.05 -2260.41,-2999.65 817.8,-616.26 1199.13,1591.3 812.2,-612.04 -1215.53,-1613.06 817.8,-616.25 122.22,162.19 -710.2,535.17 1215.53,1613.06 -919.79,693.11 138.41,183.69 984.15,-741.61 -1215.53,-1613.06 817.8,-616.25 z m 1046.37,26994.83 -44.24,58.72 -704.04,-530.52 1412.05,-1873.85 185.56,139.83 -1367.8,1815.13 518.48,390.69 z m 3770.19,-1813.63 -25.27,73.36 -4811.85,-3633.81 232.33,-674.69 3.8,1.31 -2.92,-3.85 232.31,-674.69 6030.3,95.17 -26.54,77.07 -5773.95,-91.13 -232.31,674.69 2.92,3.85 -3.8,-1.31 -232.32,674.69 z m 355.32,-7731.82 1734.78,182.32 -5.92,56.33 -1734.78,-182.32 z m -3869.89,930.96 -235.73,-24.78 208.6,-1984.64 c 69.39,-660.21 278.15,-1167.96 623.45,-1522.16 346.66,-354.07 783.99,-504.03 1314.56,-448.26 161.53,16.98 308.44,56.48 440.38,118.03 -67.16,-16.9 -137.37,-29.23 -210.57,-36.92 -530.58,-55.76 -967.91,94.19 -1314.57,448.26 -345.3,354.2 -554.06,861.94 -623.44,1522.16 l -202.68,1928.3 z m 266.35,-6114.96 -224,-39.73 -99.3,-706.62 3.99,-0.57 -4.37,-2.1 -99.31,-706.62 5416.24,-2652.91 25.47,181.2 -5211.9,2552.82 99.3,706.62 4.37,2.09 -3.99,0.57 93.49,665.24 z M 33647.8,5893.45 c 71.59,23.86 142.91,52.93 214.01,87.18 l -2104.42,807.81 784.19,2042.9 -173.16,66.47 -840.84,-2190.48 z m -4720.14,1529.33 -107.59,81.08 -2260.41,-2999.65 817.8,-616.26 122.22,162.19 -710.21,535.17 2138.19,2837.46 z M 6177.63,33648.44 6065.79,33729.7 4892.82,32115.25 c -390.2,-537.06 -574.81,-1054.08 -555.21,-1548.36 20.7,-495.07 245.36,-899.16 676.96,-1212.74 239.18,-173.78 492.35,-259.71 755.75,-258.4 189.66,0.96 385.48,44.79 587.8,131.89 -121.72,-33.28 -241.03,-50.18 -357.99,-50.78 -263.4,-1.31 -516.57,84.63 -755.75,258.4 -431.61,313.58 -656.27,717.67 -676.96,1212.74 -19.6,494.28 165,1011.3 555.2,1548.36 l 1055,1452.09 z m 404.2,-4342.32 c -112.3,-325.63 -121.96,-612.97 -28.02,-862.68 98.04,-260.59 287.85,-493.17 567.25,-696.16 L 7414.6,27534 c 120.69,-87.68 245.31,-206.46 374.72,-355.3 128.31,-148.04 193.38,-291.67 193.85,-428.2 l 64.15,-46.59 156.63,215.59 c -21.93,109.83 -83.74,223.71 -184.82,340.32 -129.41,148.83 -254.04,267.62 -374.72,355.3 l -293.54,213.28 c -279.41,202.99 -469.22,435.57 -567.25,696.16 -98.04,260.57 -83.26,562.14 43.24,905.42 -82.72,-48.19 -164.38,-89.46 -245.03,-123.85 z m 758.43,-4549.12 64.25,151.37 -5111.46,2169.69 454.51,1070.78 -165.56,70.27 -518.76,-1222.15 5277.02,-2239.95 z m -5898.57,256.37 -203.38,43.23 -436.14,-2051.86 c -140.25,-659.87 -42.03,-1257.76 293.36,-1793.41 335.39,-535.65 840.25,-875.14 1511.93,-1017.91 l 1009.51,-214.57 c 514.11,-109.28 984.02,-74.69 1409.7,103.7 -363.34,-105.01 -756.64,-112.56 -1179.89,-22.59 l -1009.51,214.57 c -671.68,142.76 -1176.54,482.26 -1511.93,1017.91 -335.39,535.65 -433.61,1133.54 -293.36,1793.41 z m -1041.85,-6441.76 -231.16,-4.03 65.56,-3755.41 1023.83,17.87 -1.35,77.08 -792.67,-13.84 z m 356.85,-5719.12 -235.39,-58.69 482.76,-1936.3 c 160.61,-644.14 437.99,-1117.87 829.23,-1420.59 392.56,-302.37 846.51,-390.02 1364.17,-260.94 89.91,22.41 174.07,51.42 252.48,86.95 -7.52,-1.99 -15.07,-3.95 -22.67,-5.84 -517.65,-129.07 -971.61,-41.43 -1364.16,260.94 -391.24,302.71 -668.63,776.44 -829.23,1420.59 L 756.7,12852.49 Z"
   id="path1"
   style="fill:#2b2a29;fill-rule:nonzero;stroke:#2b2a29;stroke-width:3;stroke-miterlimit:22.9256" />&#10;   <g
   id="g10">&#10;    <path
   class="fil1 str0"
   d="m 23116.96,21885.82 c 882.97,109.76 1665.15,1223.13 1999.42,1968.76 217.41,484.96 299.13,1183.79 267.27,1709.7 -15.75,259.87 -217.38,1460.21 -568.95,1411.18 -1029.76,-143.62 -1716.19,-1043.04 -2005.98,-1975.07 -194.21,-624.61 -297.99,-1048.4 -258.7,-1715.04 15,-254.59 222.2,-1442.39 566.94,-1399.54 z m -5908.53,8955.23 h -407.06 c -793.9,-39.85 -1657.53,-289.69 -2174.72,-447.05 -925.62,-281.62 -2444.81,-1072.82 -3210.76,-1669.03 -984.62,-766.43 -1825.59,-1439.58 -2169.7,-2692.21 v -303.87 c 388.29,-917.23 1015.14,-1778.42 1481.61,-2683.2 446.17,-865.41 981.34,-1853.66 1471.5,-2693.31 250.78,-429.59 450.51,-922.39 864.02,-1227.33 447.61,-330.09 585.05,-847.13 1042.1,-1031.41 535.27,-215.81 1208.61,52.49 1710.98,242.81 168.44,63.81 554.35,240.42 682.24,354.48 82.32,73.41 166.34,206.98 210.21,308.16 27.24,62.83 26.03,441.85 60.45,457.91 l 3.45,3.64 c 97.63,-236.36 418.44,-758.19 562.63,-996.94 182.69,-302.5 349.09,-703.67 510.94,-1028.88 57.27,-115.07 -360.59,-866.54 -442.97,-1024.96 -77.6,-149.22 -194.41,-336.53 -282.17,-486.44 -48.25,-82.42 -93.57,-167.61 -146.39,-246.85 -13.35,-20.02 -124.93,-248.42 -128.5,-246.86 l -2.44,1.95 c -73.7,802.5 -422.44,885.79 -1112.2,1160.16 -508.76,202.38 -1341.76,430.43 -1809.62,44.26 -221.07,-182.47 -323.1,-427.94 -507.17,-634.9 -178.12,-200.26 -410.87,-325.79 -585.52,-540.59 -307,-377.56 -600.91,-994.47 -836.56,-1433.53 -527.31,-982.5 -1071.72,-1954.69 -1608.28,-2931.89 -624.92,-1138.11 -1526.67,-1842.03 -733.75,-3122.45 1010.87,-1632.38 3637.39,-3119.44 5450.7,-3629.62 677.87,-190.72 1270.26,-278.37 1974.84,-298.59 758.09,-21.75 1151.35,42.67 1531.01,740.44 520.09,955.87 1105.4,1999.06 1524.58,2997.72 314.63,-252.94 694.33,-349.92 947.37,-571.98 210.95,-185.11 477.36,-630.84 640.43,-878.92 199.09,-302.88 402.8,-623.26 580.1,-939.02 208.77,-371.78 350.24,-664.35 840.2,-655.31 328.83,6.07 854.44,205.15 1130.88,388.05 301.81,199.68 476.07,516.56 781.01,740.13 542.07,397.43 1273.13,794.81 1855.95,1182.75 613.81,408.56 1196.98,808.33 1792.36,1243.67 944.71,690.77 597.63,1025.76 69.81,1906.51 -191.9,320.21 -374.96,629.78 -563.34,951.72 -275.73,471.23 -369.29,445.61 -324.45,1029.71 77.9,1014.75 -864.44,888.68 -1184.19,1775.58 -191.86,532.18 -82.06,587.43 -644.9,874.44 -525.88,268.16 -587.6,294.68 -1188.77,330.58 -697.04,41.63 -1512.63,553.04 -2005.17,1033.52 -242.51,236.57 -500.54,559.57 -710.96,828.62 -306.08,391.37 -141.31,572.89 136.28,904.37 537.27,641.58 806.55,1043.61 1593.24,1446.19 426.2,218.1 695.48,317.61 1178.95,340.41 501.44,23.64 719.19,131.96 1146.56,372.78 540.74,304.71 377.72,449.76 596.98,922.38 164.39,354.34 421.9,561.24 730.56,781.06 444.6,316.64 427.57,508.35 400.59,1017.07 -26.95,508.13 180.1,615.57 398.59,1023.24 384.97,718.28 782.32,1185.81 1043.13,1988.01 v 125.12 c -287.62,551.66 -1752.3,1463.01 -2325.71,1821.22 -422.25,263.78 -831.11,555.08 -1259.94,813.52 -562.26,338.86 -707.32,413.31 -1158.07,897.53 -326.31,350.54 -942.43,644.38 -1423.17,653.53 -618.56,11.78 -767,-554.63 -1057.65,-1000.94 -275.99,-423.77 -524.19,-837.63 -823.52,-1249.95 -185.11,-254.98 -285.97,-341.58 -583.81,-452.93 -134.9,-50.43 -222.43,-95.31 -341.04,-177.32 -37.32,-25.81 -232.35,-247 -259.41,-241.07 l -15.44,0.87 c -466.41,1040.19 -1085.56,2237.99 -1659.96,3221.31 -242.31,414.81 -712.86,581.23 -1256.94,611.91 z m 5747.66,-17070.34 c -1180.13,121.5 -2181.96,-386.84 -2711.51,-1453.3 -260.8,-525.25 -282.93,-1068.39 -447.45,-1621.78 -311.64,-1048.31 -0.31,-788.06 448.51,-1421.85 461.57,-651.8 -191.22,-1220.55 579.21,-1460.9 749.68,-233.89 653.14,-492.2 1075.47,-1014.46 616.2,-761.99 2504.66,-583.26 3225.12,-41.12 412.04,310.06 675.55,767.58 816.47,1257 83.27,289.17 118.69,603.83 133.2,903.93 18.82,389.11 -41.25,685.15 -34.95,1034.02 8.44,467.55 255.53,-2.75 310.78,-157.89 78.02,-219.07 171.02,-559.12 482.21,-494.19 143.73,29.98 553.58,303.11 632.61,431.11 143.87,232.99 -65.67,542.69 -175.27,747.56 -166.17,310.65 -514.4,1132.92 -886.93,1172.89 -308.49,33.09 -482.14,-351.81 -652.8,-285.43 -110.84,43.11 -261.27,505.46 -358.72,658.04 -555.5,869.72 -1351.83,1634.75 -2435.96,1746.37 z m 3647.06,8544.72 c -469.1,5.04 -705.07,544.09 -1107.41,105.2 -212.21,-231.48 -501.67,-763.93 -502.61,-1073.26 l 379.11,-122.91 c -83.57,-122.45 -775.24,-110.25 -965.84,-127.58 -311.25,-28.31 -619.46,-92.81 -920.88,-169.48 -518.48,-131.87 -1071.9,-375.24 -1500.14,-698.45 -423.33,-319.51 -736.7,-716.08 -1026.37,-1155.65 -145.52,-220.84 602.8,-1096.91 727.98,-1352.29 330.08,338.85 602.63,891.61 987.67,1282.43 386.83,392.64 818.73,727.78 1334.64,935.45 267.07,107.5 602.52,190.85 886.17,239.94 173.82,30.07 422.27,4.35 538.96,33.03 128.72,31.64 171.33,196.33 289.61,282.38 365.24,265.7 241.86,-323.47 583.98,560 97.89,252.79 257.92,503.68 434.22,709.77 209.25,244.6 448.29,307.54 624.5,501.28 350.63,385.48 -139.02,394.78 26.2,831.57 106.85,282.46 653.79,1165.45 844.36,1432.82 107.85,151.3 25.72,258.29 -141.08,282.91 -150.71,22.24 -195.5,-156.03 -272.53,-286.96 -139.5,-237.14 -275.52,-495.37 -402.2,-741.78 -131.24,-255.27 -636.73,-1361.19 -818.33,-1468.4 z m -6095.89,-125.74 c 649.41,-1056.5 2034.83,-1321.96 3141.26,-924.79 926.18,332.47 1903,1337.94 2131.79,2301.15 415.09,-158.98 638.61,-715.17 1059.72,-58.74 234.2,365.08 419.88,714.8 618.81,1097.16 132.19,254.07 209.25,388.4 -2.5,601.85 -70.24,70.81 -422.41,321.39 -509.04,348.98 -357.89,113.97 -351.52,-83.6 -469.91,-326.88 -63.08,-129.64 -217.22,-486.83 -286.35,-575.51 -199.94,123.44 -83.11,366.1 -64.4,622.33 18.07,247.44 22.37,558.33 5.32,805.28 -32.25,467.32 -129.52,882.91 -346.45,1298.02 -420.75,805.15 -1202.33,1191.62 -2095.96,1193.17 -528.64,0.91 -901.31,-26.52 -1391.35,-236.61 -412.91,-177.04 -487.07,-570.31 -761.09,-883.38 -341.72,-390.41 -879.52,-388.72 -1018.84,-624.94 -207.74,-352.23 163.29,-931.29 309.51,-1245.85 l 5.87,-1.35 c 3.82,-0.21 152.74,402.56 170.11,439.65 63.28,135.15 140.47,265.61 208.59,398.78 121.22,236.96 350.59,504.89 534.22,699.13 427.2,451.87 1014.52,773.49 1642.39,808.29 1463.69,81.13 2228.58,-1406.78 2233.78,-2679.57 4.9,-1199.94 -629.24,-2589.54 -1684.76,-3215.83 -601.35,-356.81 -1281.87,-458.54 -1934.2,-167.07 -987.29,441.13 -276.71,903.31 -1496.51,326.72 z m -57.28,-2456.47 c 57.94,41.52 232.61,421.02 284.57,513.2 154.62,274.26 184.88,324.1 166.26,656.59 -17.24,307.86 -366.11,894.3 -683.48,961.73 -484.22,102.87 -479.97,-901.12 -360.61,-1094.18 82.74,-133.81 523.45,-1013.59 593.26,-1037.34 z m -3504.79,-7836.65 2.15,-30.91 1465.24,-147.83 3.33,33.03 c 55.65,212.89 667.61,1348.22 816.35,1614.63 125.31,224.44 -64.32,709.41 -143.39,953.04 -30.75,94.75 -262.16,889.65 -311.34,904.14 l -23.63,9.92 z m -51.42,11107.09 c 133.15,-412.87 574.41,-1066.54 777.29,-1469.46 236.55,-469.79 513.17,-984.85 777.43,-1439.02 542.83,-932.96 1017.5,-1922.77 1586.84,-2846.08 552.13,-895.39 1002.24,-1912.84 1850.04,-2582.89 434.52,-343.42 972.85,-562.66 1500.15,-716.31 343.08,-99.98 582.34,-129.83 932.36,-175.87 216.02,-28.41 916.44,-9.44 1003.26,-136.83 l -385.26,-116.42 5.22,-17.28 c -9.49,-349.08 299.11,-800.38 507.21,-1065.77 289.16,-368.76 707.91,38.12 1100.59,135.37 385.81,-600.04 623.38,-1165.6 963.78,-1771.05 99.64,-177.22 316.78,-824.07 564.67,-747.21 347.95,107.89 -125.59,660.86 -239.79,839.72 -145.48,227.86 -400.98,619.44 -497.96,859.62 -171.73,425.3 382.64,591.56 -142.41,948.85 -641.1,436.27 -934.87,858.36 -1130.91,1621.8 -734.97,73.3 -407.6,255.95 -697.05,321.81 -274.85,62.53 -569.68,33.12 -913.67,123.07 -552.33,144.43 -925.75,332.89 -1379.3,676.29 -679.28,514.3 -1371.56,1576.24 -1822.37,2306.69 -541.6,877.56 -995.88,1738.06 -1500.64,2628.42 -456.92,805.98 -1022.8,1893.11 -1390.97,2738.09 l -3.39,33.34 -1465.13,-148.85 z m 1254.02,-6212.13 c -42.3,-41.39 -625.3,-1125.06 -698.41,-1267.8 -193.55,-377.88 -503.45,-848.74 -749.19,-1199.15 -270.42,-385.6 -572.2,-761.65 -832.33,-1133.89 -289.07,-413.65 -276.93,-193.54 -42.92,-580.98 72.47,-120 385.47,-407.18 517.5,-447.72 12.73,92.88 1135.46,2039.44 1279.46,2277.61 200.89,332.28 463.22,805.3 635.87,1151.59 132.37,265.51 282.58,329.68 151.88,586.54 -87.94,172.79 -199.29,431.54 -261.87,613.81 z m -1894.72,5898.65 c -177.6,-83.91 -376.92,-294.11 -495.09,-451.98 -264.18,-352.95 -176.67,-217.24 50.46,-546.19 247.14,-357.92 549.76,-696.73 787.8,-1071.74 474.04,-746.83 1010.91,-1552.84 1380.06,-2355.75 403.29,-877.19 798.41,-1677.53 1149.66,-2586.15 185.95,-481.05 332.65,-905.46 474.62,-1402.23 65.33,-228.61 143.56,-523.17 172.63,-756.85 34.53,-277.56 14.07,-584.91 397.56,-507.91 406,81.51 712.75,817.43 672.33,1201.7 -19.44,184.72 -484.28,1034.04 -602.71,1256.99 -429.64,808.88 -847.2,1643.07 -1296.73,2439.09 -448.93,794.98 -882.06,1611.16 -1324.08,2411.74 -272,492.65 -1068.39,2026.2 -1366.52,2369.3 z m 89.37,-7221.39 c 39.47,392.33 -8.47,344.11 -391.69,501.95 -242.72,99.97 -428.36,204.03 -687.21,278.13 -622.35,178.17 -944.98,271.5 -1316.76,-332.78 -262.59,-426.81 -651.26,-587.38 -926.05,-1003.93 -294.17,-445.92 -91.5,-1019.8 235.94,-1385.14 638.52,-712.44 1300.31,-1243.44 2135.47,-1707.59 394.09,-219.02 981.59,-411.5 1424.98,-487.61 322.65,-55.39 547.94,-92.22 880.03,-76.52 150.2,7.1 265.29,29.68 408.97,72.46 30.54,9.09 335.04,124.67 333,131.74 l -2.35,4.5 c -500.69,93.7 -892.42,20.73 -1470.63,177.71 -398.06,108.07 -761.63,283.15 -1082.19,544.41 -296.96,242.02 -506.46,634.16 -784.31,860.17 -304.89,248 -707.48,362.74 -1048.99,577.61 -342.59,215.55 -788.85,475.72 -661.19,956.4 77.7,292.57 610.22,575.16 811.44,813.56 422.63,500.69 140.44,693.17 965.31,525.52 423.23,-86.02 800.34,-330.38 1176.21,-450.58 z m 2045.27,7908.18 c -727.81,515.06 -2313.25,79.69 -3040.38,-317.3 -717.2,-391.56 -1608.69,-1064.13 -2130.95,-1694.24 -323.32,-390.09 -555.94,-951.24 -247.13,-1422.84 250.98,-383.26 659.33,-577.04 923.19,-989.4 393.63,-615.15 668.74,-506.1 1314.77,-329.33 234.75,64.23 470.33,173.56 694.86,270.35 286.07,123.33 467.09,151.3 368.87,507.01 -420.98,-160.22 -724.58,-343.19 -1190.25,-454.53 -818.56,-195.7 -544.7,125.97 -956.52,542.1 -264.67,267.45 -685.14,472.54 -801.21,845.5 -122.3,392.98 377.19,752.03 672.57,913.34 298.95,163.25 831.37,382.76 1058.67,585.8 280.36,250.44 474.86,594.22 779.02,847.58 299.81,249.73 710.39,462.5 1089.74,554.72 250.71,60.96 444.48,95.27 701.22,121.22 140.24,14.19 231.89,40.78 378.4,30.33 41.14,-2.93 364.2,-31.25 376.88,-18.57 l 8.24,8.24 z m -6331.79,-10083.12 22.03,-12.92 c 246.61,-83.78 169.78,74.6 444.39,-184.4 103.1,-97.24 184.3,-237.7 277.4,-348.2 253.66,-301.09 308.84,-393.14 644.41,-624.69 520.69,-359.29 1101.85,-565.41 1636.84,-883.5 697.7,-414.83 733.83,-1033.27 409.59,-1729.75 -102.92,-221.07 -963.56,-1532.42 -963.91,-1541.54 307.72,-255.06 1621.28,-720.52 2046.5,-867.08 836.89,-288.44 1696.23,-337.97 2575.6,-337.97 31.49,133.36 396.34,779.17 485.72,944.26 260.85,481.8 336.52,507.72 336.52,1093.46 l -959.92,-1843.84 c -725.72,2.74 -964.12,48.79 -1596.17,199.36 8.62,67.48 1098.68,2203.24 1219.19,2409.37 207.5,354.93 424.36,814.08 616.21,1189.13 243.13,475.25 288.89,952.76 327.44,1477.91 h -143 c -176.92,-675.49 -1053.23,-1070.39 -1696.91,-1073.68 -984.49,-5.03 -1393.61,83.55 -2276.07,496.9 -471.02,220.63 -1240.55,790.14 -1609.04,1161.54 -231.28,233.11 -474.54,454.84 -696.44,697.79 -422.94,463.04 -272.87,849.65 -378.14,1009.63 l -722.26,-1231.8 z m 7039.23,14794.48 -321.74,17.88 h -35.75 c -314.66,0 -954.31,-35 -1248.44,-110.04 -331.41,-84.56 -773.51,-194.43 -1107.74,-268.61 -251.15,-55.74 -1790.81,-704.48 -1912.19,-833.13 43.65,-135.68 400.52,-586.52 504.57,-746.66 182.81,-281.34 306.1,-513.69 461.84,-807.26 376,-708.79 224.8,-1283.24 -416.23,-1720.61 -479.12,-326.89 -1117.3,-505.2 -1639.29,-881.05 -371.69,-267.63 -357,-316.3 -642.2,-626.9 -105.78,-115.2 -169.96,-215.07 -288.4,-337.21 -268.29,-276.66 -209.57,-82.51 -446.79,-208.41 l 728.96,-1217.74 c 57.36,855.92 399.15,1054.75 976.17,1615.67 443.06,430.69 947.7,815.96 1480.05,1129.66 1057.48,623.17 3036.43,1041.39 3946.36,-24.94 365.17,-427.93 67.9,-503.47 827.45,-437.1 368.72,32.22 665.27,154.86 997.89,302.97 782.73,348.51 235.83,1198.04 -55.54,1743.06 -580.75,1086.33 -1307.25,2307.06 -1808.99,3410.43 z M 10783.41,11000.11 c -14.33,-137.99 991.32,-1141.42 1147.19,-1283.76 427.53,-390.41 906.98,-761.41 1396.89,-1069.82 262.93,-165.53 508.03,-300.46 774.43,-454.94 391.27,-226.89 395.18,-50.63 642.87,312.72 276.02,404.91 770.49,1185.94 778.02,1674.05 10.48,679.85 -677.71,1022.11 -1203.56,1265.28 -513.3,237.35 -1077.57,585.59 -1463.25,1003.46 -153.37,166.16 -404.64,580.87 -581.33,660.5 -342.28,154.26 -489.63,-317.47 -618.22,-531.67 -74.76,-124.52 -872.26,-1568.31 -873.03,-1575.8 z m -35.75,12923.41 c -35.05,-130.17 717.42,-1389.49 829.9,-1601.06 557.81,-1049.23 642.66,-542.38 1190.3,63.48 369.93,409.25 946.4,792.3 1448.56,1018.15 518.06,233.01 1210.47,561.54 1236.78,1216.29 21,522.67 -455.56,1294.06 -749.07,1722.39 -226.57,330.65 -259.81,567.96 -605.22,362.04 -253.6,-151.19 -520.76,-279 -771.96,-445.04 -505.11,-333.87 -954.76,-652.74 -1405.22,-1061.49 -179.76,-163.11 -1130.35,-1112.42 -1174.07,-1274.76 z m 222.86,-14237.78 c 254.11,-308.57 566.59,-601.29 863.41,-870.44 530.13,-480.73 1436.76,-1078.67 2072.8,-1412.76 756.1,-397.18 1625.16,-810.22 2449.27,-1036.3 488.54,-134.02 944.22,-247.42 1449.99,-301.73 326.91,-35.11 488.97,-37.91 817.08,-8.5 202.76,18.17 292.26,289.92 382.7,475.41 -1747.03,-107.9 -3351.43,578.88 -4863.16,1375.11 -654.58,344.77 -1308.19,799.4 -1884.09,1261.86 -288.61,231.76 -576.83,471.11 -835.82,737.16 -239.07,245.59 -509.91,593.68 -746.55,808.55 -143.48,-260.84 -292.36,-298.36 -94.91,-542.78 132.67,-164.22 253.77,-321.05 389.27,-485.59 z m 7963.76,18652.83 c -89.71,194.37 -151.87,466.59 -397.07,479.05 -284.2,14.44 -567.3,-6.85 -851.17,-17.3 -338.17,-12.44 -1084.44,-204.35 -1425.3,-308.55 -898.56,-274.69 -1599.35,-625.33 -2432,-1035.69 -541.62,-266.93 -1623.17,-996.26 -2054.91,-1412.78 -303.78,-293.07 -592.12,-538.33 -866.09,-867.76 -133.42,-160.44 -265.2,-317.74 -389.58,-485.77 -72.35,-97.74 -131.56,-145.65 -63.6,-266.54 18.26,-32.5 135.23,-269.95 161.48,-273.85 l 14.52,-6.02 c 251.7,258.15 481.65,564.44 746.49,831 258.76,260.45 550.24,506.07 834.37,738.6 501.61,410.52 1299.53,966.53 1876.19,1251.89 1704.37,843.41 2875,1416.1 4846.69,1373.72 z m -8657,-18721.64 c 133.18,-167.36 256.08,-318.57 391.87,-482.8 278.96,-337.41 553.33,-571.65 863.06,-870.8 426.67,-412.11 1522.92,-1142.4 2060.07,-1407.62 808.39,-399.15 1556.63,-784.89 2434.31,-1033.38 435.46,-123.28 983.74,-278.77 1430.43,-303.41 320.32,-17.67 504.64,-27.52 828.81,-1.47 244.96,19.69 319.38,245.8 398.2,459.87 -1663.11,-176 -3413.29,655.91 -4858.69,1379.59 -580.66,290.73 -1364.45,844.07 -1872.03,1256.04 -296.2,240.41 -561.02,472.09 -834.88,738.1 -228.64,222.08 -533.89,636.31 -746.14,808.96 -146.8,-249.25 -286.32,-302.64 -95.01,-543.06 z m 8102.19,19739.81 c -610.25,-15.85 -898.24,38.64 -1535.43,-89.79 -450.1,-90.73 -852.77,-210.99 -1285.28,-359.2 -803.07,-275.19 -1521.02,-612.97 -2259.69,-1029.26 -713.94,-402.35 -1310.52,-846.08 -1931.73,-1375.09 -286.68,-244.13 -565.39,-547.16 -814.2,-830.28 -124.75,-141.95 -246.5,-311.74 -361.07,-463.11 -154.2,-203.74 130.8,-508.88 136.14,-508.33 l 15.55,-1.53 c 538.16,861.97 2514.72,2381.82 3441.31,2817.46 755.74,355.32 1344.1,703.71 2166.41,961.67 814.25,255.43 1822.46,522.41 2678.91,413.41 l -250.93,464.06 z M 10310.59,8614.69 c 266.38,-306.52 521.34,-551.92 817.39,-827.09 588.31,-546.83 1252.29,-939.87 1926.41,-1362.54 1315.44,-824.77 3524.84,-1603.24 5075.53,-1466.61 l 237.46,462.22 c -1042.65,12.86 -1706.88,56.34 -2699.12,418.69 -819.33,299.21 -1390.93,579.6 -2160.63,967.44 -575.8,290.14 -1377.54,838.05 -1876,1252.07 -294.63,244.71 -553.59,479.71 -834.04,738.93 -122.11,112.86 -265.33,282.54 -377.51,408.98 -30.98,34.92 -361.05,407.3 -361.39,407.22 l -13.7,-3.02 c -119.56,-236.08 -264.35,-304.28 -98.72,-538.91 99.03,-140.29 250.91,-326.89 364.33,-457.39 z m 7998.07,20832.1 c -80.04,182.32 -160.98,480.98 -390.11,486 -277.35,6.09 -553.93,-8.66 -830.02,-34.48 -484.57,-45.32 -971.11,-154.63 -1435.97,-297.87 -901.59,-277.82 -1588.76,-612.25 -2424.21,-1025.61 -662.63,-327.85 -1492.1,-928.1 -2061.78,-1405.92 -309.65,-259.72 -599.62,-563.46 -870.15,-863.7 -128.52,-142.64 -267.63,-321.15 -379.95,-477.22 -195.19,-271.22 -78.24,-288.11 62.57,-563.89 125.41,78.05 601.36,648.64 762.72,810.26 267.25,267.68 558.59,490.3 833.46,739.51 461.16,418.11 1324.11,945.93 1876.89,1251.18 1486.62,820.95 3134.56,1451.99 4856.54,1381.73 z M 18094.17,4851.2 c -1903.46,0 -3217.04,541.28 -4865.14,1408.89 -597.26,314.41 -1359.73,817.5 -1873.7,1254.37 -288,244.8 -561.79,474.7 -835.67,737.3 -108.12,103.67 -696.31,808.74 -737.24,817.87 -7.21,-1300.05 2239.67,-2785.98 3269.41,-3344.23 734.7,-398.3 1524.61,-756.61 2335.68,-971.14 679.06,-179.6 2224.65,-536.21 2706.65,96.94 z m -53.62,25149.71 c -441.74,674.99 -2035.02,269.4 -2699.15,107.32 -872.19,-212.87 -1553.09,-573.85 -2343.79,-963.04 -1027.6,-505.78 -3286.82,-2083.78 -3268.81,-3344.84 212.2,181.16 515.99,595.84 745.21,827.77 264.26,267.37 559.51,491.76 833.83,739.14 481.7,434.38 1306.85,924.69 1878.01,1250.07 1204.11,685.96 3477.39,1586.17 4854.69,1383.58 z"
   id="path2"
   style="fill:#2b2a29;stroke:#2b2a29;stroke-width:3;stroke-miterlimit:22.9256" />&#10;    <path
   class="fil1 str0"
   d="m 22509.22,11643.61 c -36.81,-1046.91 191.86,-2210.43 917.26,-3015.19 324.22,-359.69 792.66,-634.09 1271.02,-720.79 449.66,-81.5 593.71,1006.56 616.19,1324.74 70.29,995.13 -250.49,2261.7 -998.54,2965.92 -346.17,325.89 -740.49,651.63 -1209.81,784.94 -380.35,108.04 -586.81,-1075.16 -596.11,-1339.63 z m 339.62,1537.22 c 1449.26,-70.22 2448.77,-1637.15 2654.39,-2940.39 230.48,-1460.87 -453.02,-3399.03 -2205.87,-3297.88 -1423.62,82.15 -2480.89,1640.33 -2649.28,2947.57 -188.21,1461.23 432.62,3376.38 2200.76,3290.7 z"
   id="path3"
   style="fill:#2b2a29;stroke:#2b2a29;stroke-width:3;stroke-miterlimit:22.9256" />&#10;    <path
   class="fil1 str0"
   d="m 18970.02,27909.59 c 148.89,-385.71 502.5,-1041.3 711.28,-1415.82 259.1,-464.81 488.46,-944.7 722.46,-1422.5 234.08,-477.97 450.76,-957.23 693.56,-1432.99 266.26,-521.75 -972.94,-744.92 -1284.7,-750.21 l -2445.27,4813.07 c 313.41,183.18 1151.16,208.45 1602.68,208.45 z"
   id="path4"
   style="fill:#2b2a29;stroke:#2b2a29;stroke-width:3;stroke-miterlimit:22.9256" />&#10;    <path
   class="fil1 str0"
   d="m 13875.73,11375.49 c 369.8,-90.82 1008.8,-484.15 1233.4,-804.31 313.89,-447.44 -45.66,-1076.52 -277.71,-1491.98 -101.38,-181.51 -281.52,-444.58 -413.57,-605.05 -132.46,-160.95 -515.71,145.7 -660.8,226.57 -175.43,97.77 -1156.76,709.99 -1186.17,833.67 923.63,-0.01 1719.32,1013.94 1304.85,1841.09 z"
   id="path5"
   style="fill:#2b2a29;stroke:#2b2a29;stroke-width:3;stroke-miterlimit:22.9256" />&#10;    <path
   class="fil1 str0"
   d="m 14286.85,26479.61 c 320.79,-432.43 872.52,-1184.04 894.6,-1733.84 13.81,-344.09 -228.41,-625.78 -490.89,-814.83 -111.45,-80.27 -767.48,-431.35 -868.44,-436.4 42.77,180.48 89.37,156.92 89.37,375.37 v 125.12 c 0,390.15 -179.49,668.15 -432.81,943.54 -293.09,318.62 -573.27,379.19 -997.17,379.19 31.52,93.32 712.8,528.85 858.35,625.25 301.7,199.84 688.73,364.63 946.99,536.6 z"
   id="path6"
   style="fill:#2b2a29;stroke:#2b2a29;stroke-width:3;stroke-miterlimit:22.9256" />&#10;    <path
   class="fil1 str0"
   d="m 12088.26,10964.37 c 228.56,1104.95 1759.72,869.52 1487.43,-200.42 -285.93,-1123.54 -1714.97,-899.65 -1487.43,200.42 z"
   id="path7"
   style="fill:#2b2a29;stroke:#2b2a29;stroke-width:3;stroke-miterlimit:22.9256" />&#10;    <path
   class="fil1 str0"
   d="m 12034.64,24281.03 c 196.89,1107.38 1757.7,400.52 1486.98,-557.46 -294.02,-1040.43 -1672.02,-483.34 -1486.98,557.46 z"
   id="path8"
   style="fill:#2b2a29;stroke:#2b2a29;stroke-width:3;stroke-miterlimit:22.9256" />&#10;    <path
   class="fil1 str0"
   d="m 11623.52,24513.4 c -10.54,-555.19 -78.89,-621.97 224.06,-1134.42 257.25,-435.15 518.26,-416.81 835.28,-587.27 l -629.61,-712.62 c -195.13,37.41 -662.9,1050.56 -752.09,1271.82 -37.89,93.99 -117.59,238.29 -169.36,331.16 -105.32,188.95 -142.17,123.91 7.44,296.72 76.81,88.71 415.45,507.2 484.28,534.6 z"
   id="path9"
   style="fill:#2b2a29;stroke:#2b2a29;stroke-width:3;stroke-miterlimit:22.9256" />&#10;    <path
   class="fil1 str0"
   d="m 12745.8,12086.65 c -352.91,-199.37 -421.03,-96.75 -756.31,-487.25 -206.12,-240.06 -330.21,-598.2 -330.21,-921 l -5.23,-107.83 23.11,-213.94 c -80.72,29.9 -598.23,620.84 -549.43,726.72 129.96,281.99 314.38,594.03 458.39,883.67 69.55,139.89 378.84,825.36 517.4,815.32 16.38,-1.19 640.79,-692.35 642.29,-695.7 z"
   id="path10"
   style="fill:#2b2a29;stroke:#2b2a29;stroke-width:3;stroke-miterlimit:22.9256" />&#10;   </g>&#10;  </g></g>&#10;</svg>
